<svg width="33" height="33" viewBox="0 0 33 33" fill="none" xmlns="http://www.w3.org/2000/svg">
<path d="M16.5 31.2832C8.34625 31.2832 1.71875 24.6557 1.71875 16.502C1.71875 8.3482 8.34625 1.7207 16.5 1.7207C24.6537 1.7207 31.2812 8.3482 31.2812 16.502C31.2812 24.6557 24.6537 31.2832 16.5 31.2832ZM16.5 3.7832C9.4875 3.7832 3.78125 9.48945 3.78125 16.502C3.78125 23.5145 9.4875 29.2207 16.5 29.2207C23.5125 29.2207 29.2187 23.5145 29.2187 16.502C29.2187 9.48945 23.5125 3.7832 16.5 3.7832Z" fill="#0064FA"/>
<path d="M22 17.5312H11C10.4363 17.5312 9.96875 17.0638 9.96875 16.5C9.96875 15.9363 10.4363 15.4688 11 15.4688H22C22.5638 15.4688 23.0312 15.9363 23.0312 16.5C23.0312 17.0638 22.5638 17.5312 22 17.5312Z" fill="#0064FA"/>
<path d="M16.5 23.0332C15.9363 23.0332 15.4688 22.5657 15.4688 22.002V11.002C15.4688 10.4382 15.9363 9.9707 16.5 9.9707C17.0638 9.9707 17.5312 10.4382 17.5312 11.002V22.002C17.5312 22.5657 17.0638 23.0332 16.5 23.0332Z" fill="#0064FA"/>
</svg>
