<svg width="25" height="25" viewBox="0 0 25 25" fill="none" xmlns="http://www.w3.org/2000/svg">
<path d="M23.2305 12.7285C23.2305 18.5245 18.5317 23.2285 12.7305 23.2285C6.92922 23.2285 2.23047 18.5245 2.23047 12.7285C2.23047 6.92726 6.92922 2.22852 12.7305 2.22852C18.5317 2.22852 23.2305 6.92726 23.2305 12.7285Z" fill="#283544"/>
<path d="M17.6521 10.0716C17.5948 10.105 16.2308 10.8104 16.2308 12.3744C16.2951 14.1581 17.9521 14.7836 17.9805 14.7836C17.9521 14.817 17.7303 15.6357 17.0735 16.4939C16.5522 17.2332 15.9736 17.9785 15.0951 17.9785C14.2593 17.9785 13.9593 17.4858 12.9951 17.4858C11.9595 17.4858 11.6665 17.9785 10.8736 17.9785C9.99504 17.9785 9.37361 17.1932 8.82392 16.4609C8.10979 15.5025 7.5028 13.9983 7.48137 12.5541C7.46693 11.7888 7.62439 11.0365 8.02408 10.3976C8.58821 9.5055 9.59535 8.89995 10.6952 8.87998C11.5379 8.8535 12.2879 9.41912 12.8022 9.41912C13.2951 9.41912 14.2165 8.87998 15.259 8.87998C15.709 8.88041 16.909 9.00673 17.6521 10.0716ZM12.7309 8.72718C12.5809 8.02829 12.9951 7.32941 13.3808 6.88359C13.8736 6.34445 14.652 5.97852 15.3233 5.97852C15.3662 6.6774 15.0946 7.36283 14.6092 7.86203C14.1736 8.40118 13.4236 8.80705 12.7309 8.72718Z" fill="white"/>
</svg>
