<svg width="20" height="20" viewBox="0 0 20 20" fill="none" xmlns="http://www.w3.org/2000/svg">
<path d="M7.28991 16.9479C7.13158 16.9479 6.97324 16.8896 6.84824 16.7646C6.60658 16.5229 6.60658 16.1229 6.84824 15.8812L12.2816 10.4479C12.6816 10.0479 12.6816 9.39792 12.2816 8.99792L6.84824 3.56458C6.60658 3.32292 6.60658 2.92292 6.84824 2.68125C7.08991 2.43958 7.48991 2.43958 7.73158 2.68125L13.1649 8.11458C13.5899 8.53958 13.8316 9.11458 13.8316 9.72292C13.8316 10.3313 13.5982 10.9062 13.1649 11.3313L7.73158 16.7646C7.60658 16.8813 7.44824 16.9479 7.28991 16.9479Z" fill="#0064FA"/>
</svg>
