<svg width="44" height="44" viewBox="0 0 44 44" fill="none" xmlns="http://www.w3.org/2000/svg">
<path d="M18.3882 16.4447C17.8513 15.9077 16.9807 15.9077 16.4437 16.4447C15.9067 16.9817 15.9067 17.8523 16.4437 18.3892L20.0548 22.0003L16.4437 25.6114C15.9068 26.1483 15.9068 27.0189 16.4437 27.5559C16.9807 28.0929 17.8513 28.0929 18.3883 27.5559L21.9993 23.9449L25.6103 27.5559C26.1473 28.0928 27.0179 28.0928 27.5549 27.5559C28.0918 27.0189 28.0918 26.1483 27.5549 25.6113L23.9439 22.0003L27.5549 18.3893C28.0919 17.8523 28.0919 16.9817 27.5549 16.4447C27.0179 15.9078 26.1473 15.9078 25.6104 16.4447L21.9993 20.0558L18.3882 16.4447Z" fill="black"/>
<path fill-rule="evenodd" clip-rule="evenodd" d="M21.9993 2.29199C11.1147 2.29199 2.29102 11.1157 2.29102 22.0003C2.29102 32.8849 11.1147 41.7087 21.9993 41.7087C32.884 41.7087 41.7077 32.8849 41.7077 22.0003C41.7077 11.1157 32.884 2.29199 21.9993 2.29199ZM5.04102 22.0003C5.04102 12.6345 12.6335 5.04199 21.9993 5.04199C31.3652 5.04199 38.9577 12.6345 38.9577 22.0003C38.9577 31.3662 31.3652 38.9587 21.9993 38.9587C12.6335 38.9587 5.04102 31.3662 5.04102 22.0003Z" fill="black"/>
</svg>
