<svg width="36" height="36" viewBox="0 0 36 36" fill="none" xmlns="http://www.w3.org/2000/svg">
<path d="M32.1648 10.4936L11.4955 31.1629C9.80065 32.8578 7.11292 32.9811 5.56671 31.4349C4.0205 29.8887 4.14379 27.2009 5.83867 25.5061L26.5079 4.83678C28.2028 3.1419 30.8906 3.01861 32.4368 4.56482C33.983 6.11102 33.8597 8.79875 32.1648 10.4936Z" fill="white"/>
<path d="M32.4368 31.4352C30.8906 32.9814 28.2028 32.8581 26.5079 31.1632L5.83867 10.4939C4.14379 8.79907 4.0205 6.11133 5.56671 4.56513C7.11292 3.01892 9.80065 3.14221 11.4955 4.83709L32.1648 25.5064C33.8597 27.2012 33.983 29.889 32.4368 31.4352Z" fill="white"/>
</svg>
