<svg width="33" height="33" viewBox="0 0 33 33" fill="none" xmlns="http://www.w3.org/2000/svg">
<path d="M26.9608 10.3276L26.8674 10.2731L18.4594 5.36759C17.9359 5.06276 17.338 4.90001 16.7337 4.90001C16.129 4.90001 15.5314 5.06054 15.0086 5.36725L15.0081 5.36752L6.60015 10.2706L26.9608 10.3276ZM26.9608 10.3276L26.9639 10.3261M26.9608 10.3276L26.9639 10.3261M26.9639 10.3261C27.9607 10.951 28.5699 12.0506 28.5699 13.2312V24.4773C28.5699 26.368 27.0349 27.903 25.1443 27.903H8.32809C6.43744 27.903 4.90246 26.368 4.90246 24.4773V13.2337C4.90246 12.0147 5.5492 10.8844 6.60003 10.2706L26.9639 10.3261ZM19.3181 3.8996L19.3178 3.89947C18.5344 3.44377 17.6432 3.20039 16.7337 3.20039C15.8272 3.20039 14.9332 3.44106 14.1516 3.89978C14.1515 3.89981 14.1515 3.89984 14.1514 3.89986L5.7438 8.80269L5.74372 8.80273C4.1685 9.72226 3.20039 11.4101 3.20039 13.2337V24.4773C3.20039 27.3076 5.49533 29.6026 8.32562 29.6026H25.1418C27.9721 29.6026 30.2671 27.3076 30.2671 24.4773V13.2312C30.2671 11.4101 29.299 9.72223 27.7261 8.80514L19.3181 3.8996ZM20.0911 19.314C20.5609 19.314 20.9433 18.9315 20.9433 18.4617C20.9433 17.9919 20.5609 17.6094 20.0911 17.6094H17.5885V15.1068C17.5885 14.637 17.206 14.2545 16.7362 14.2545C16.2664 14.2545 15.8839 14.637 15.8839 15.1068V17.6094H13.3813C12.9115 17.6094 12.529 17.9919 12.529 18.4617C12.529 18.9315 12.9115 19.314 13.3813 19.314H15.8839V21.8166C15.8839 22.2864 16.2664 22.6688 16.7362 22.6688C17.206 22.6688 17.5885 22.2864 17.5885 21.8166V19.314H20.0911Z" fill="#D64657" stroke="#D64657" stroke-width="0.4"/>
</svg>
