<svg width="24" height="25" viewBox="0 0 24 25" fill="none" xmlns="http://www.w3.org/2000/svg">
<path d="M15.24 22.77H15.11C10.67 22.77 8.53 21.02 8.16 17.1C8.12 16.69 8.42 16.32 8.84 16.28C9.24 16.24 9.62 16.55 9.66 16.96C9.95 20.1 11.43 21.27 15.12 21.27H15.25C19.32 21.27 20.76 19.83 20.76 15.76V9.23998C20.76 5.16998 19.32 3.72998 15.25 3.72998H15.12C11.41 3.72998 9.93 4.91998 9.66 8.11998C9.61 8.52998 9.26 8.83998 8.84 8.79998C8.42 8.76998 8.12 8.39998 8.15 7.98998C8.49 4.00998 10.64 2.22998 15.11 2.22998H15.24C20.15 2.22998 22.25 4.32998 22.25 9.23998V15.76C22.25 20.67 20.15 22.77 15.24 22.77Z" fill="#F15757"/>
<path d="M5.32043 16.3798C5.47043 16.5298 5.66043 16.5998 5.85043 16.5998C6.04043 16.5998 6.24043 16.5298 6.38043 16.3798C6.67043 16.0898 6.67043 15.6098 6.38043 15.3198L4.31059 13.25H15.0001C15.4101 13.25 15.7501 12.91 15.7501 12.5C15.7501 12.09 15.4101 11.75 15.0001 11.75H4.31027L6.38043 9.67982C6.67043 9.38982 6.67043 8.90982 6.38043 8.61982C6.09043 8.32982 5.61043 8.32982 5.32043 8.61982L1.97043 11.9698C1.68043 12.2598 1.68043 12.7398 1.97043 13.0298L5.32043 16.3798Z" fill="#F15757"/>
</svg>
