<svg width="116" height="20" viewBox="0 0 116 20" fill="none" xmlns="http://www.w3.org/2000/svg">
<path d="M0.256 19V2.2H7.168C8.656 2.2 9.928 2.44 10.984 2.92C12.056 3.4 12.88 4.088 13.456 4.984C14.032 5.88 14.32 6.944 14.32 8.176C14.32 9.408 14.032 10.472 13.456 11.368C12.88 12.264 12.056 12.952 10.984 13.432C9.928 13.912 8.656 14.152 7.168 14.152H1.984L3.376 12.688V19H0.256ZM3.376 13.024L1.984 11.512H7.024C8.4 11.512 9.432 11.224 10.12 10.648C10.824 10.056 11.176 9.232 11.176 8.176C11.176 7.104 10.824 6.28 10.12 5.704C9.432 5.128 8.4 4.84 7.024 4.84H1.984L3.376 3.304V13.024ZM17.0305 19V6.184H19.8865V9.712L19.5505 8.68C19.9345 7.816 20.5345 7.16 21.3505 6.712C22.1825 6.264 23.2145 6.04 24.4465 6.04V8.896C24.3185 8.864 24.1985 8.848 24.0865 8.848C23.9745 8.832 23.8625 8.824 23.7505 8.824C22.6145 8.824 21.7105 9.16 21.0385 9.832C20.3665 10.488 20.0305 11.472 20.0305 12.784V19H17.0305ZM32.8983 19.168C31.4743 19.168 30.2263 18.888 29.1543 18.328C28.0983 17.752 27.2743 16.968 26.6823 15.976C26.1063 14.984 25.8183 13.856 25.8183 12.592C25.8183 11.312 26.0983 10.184 26.6583 9.208C27.2343 8.216 28.0183 7.44 29.0103 6.88C30.0183 6.32 31.1623 6.04 32.4423 6.04C33.6903 6.04 34.8023 6.312 35.7783 6.856C36.7543 7.4 37.5223 8.168 38.0823 9.16C38.6423 10.152 38.9223 11.32 38.9223 12.664C38.9223 12.792 38.9143 12.936 38.8983 13.096C38.8983 13.256 38.8903 13.408 38.8743 13.552H28.1943V11.56H37.2903L36.1143 12.184C36.1303 11.448 35.9783 10.8 35.6583 10.24C35.3383 9.68 34.8983 9.24 34.3383 8.92C33.7943 8.6 33.1623 8.44 32.4423 8.44C31.7063 8.44 31.0583 8.6 30.4983 8.92C29.9543 9.24 29.5223 9.688 29.2023 10.264C28.8983 10.824 28.7463 11.488 28.7463 12.256V12.736C28.7463 13.504 28.9223 14.184 29.2743 14.776C29.6263 15.368 30.1223 15.824 30.7623 16.144C31.4023 16.464 32.1383 16.624 32.9703 16.624C33.6903 16.624 34.3383 16.512 34.9143 16.288C35.4903 16.064 36.0023 15.712 36.4503 15.232L38.0583 17.08C37.4823 17.752 36.7543 18.272 35.8743 18.64C35.0103 18.992 34.0183 19.168 32.8983 19.168ZM41.3903 13.576V11.08H47.9903V13.576H41.3903ZM51.2727 19V6.184H54.1287V9.712L53.7927 8.68C54.1767 7.816 54.7767 7.16 55.5927 6.712C56.4247 6.264 57.4567 6.04 58.6887 6.04V8.896C58.5607 8.864 58.4407 8.848 58.3287 8.848C58.2167 8.832 58.1047 8.824 57.9927 8.824C56.8567 8.824 55.9527 9.16 55.2807 9.832C54.6087 10.488 54.2727 11.472 54.2727 12.784V19H51.2727ZM67.1404 19.168C65.7164 19.168 64.4684 18.888 63.3964 18.328C62.3404 17.752 61.5164 16.968 60.9244 15.976C60.3484 14.984 60.0604 13.856 60.0604 12.592C60.0604 11.312 60.3404 10.184 60.9004 9.208C61.4764 8.216 62.2604 7.44 63.2524 6.88C64.2604 6.32 65.4044 6.04 66.6844 6.04C67.9324 6.04 69.0444 6.312 70.0204 6.856C70.9964 7.4 71.7644 8.168 72.3244 9.16C72.8844 10.152 73.1644 11.32 73.1644 12.664C73.1644 12.792 73.1564 12.936 73.1404 13.096C73.1404 13.256 73.1324 13.408 73.1164 13.552H62.4364V11.56H71.5324L70.3564 12.184C70.3724 11.448 70.2204 10.8 69.9004 10.24C69.5804 9.68 69.1404 9.24 68.5804 8.92C68.0364 8.6 67.4044 8.44 66.6844 8.44C65.9484 8.44 65.3004 8.6 64.7404 8.92C64.1964 9.24 63.7644 9.688 63.4444 10.264C63.1404 10.824 62.9884 11.488 62.9884 12.256V12.736C62.9884 13.504 63.1644 14.184 63.5164 14.776C63.8684 15.368 64.3644 15.824 65.0044 16.144C65.6444 16.464 66.3804 16.624 67.2124 16.624C67.9324 16.624 68.5804 16.512 69.1564 16.288C69.7324 16.064 70.2444 15.712 70.6924 15.232L72.3004 17.08C71.7244 17.752 70.9964 18.272 70.1164 18.64C69.2524 18.992 68.2604 19.168 67.1404 19.168ZM81.9261 19.168C80.5821 19.168 79.3821 18.888 78.3261 18.328C77.2861 17.752 76.4701 16.968 75.8781 15.976C75.2861 14.984 74.9901 13.856 74.9901 12.592C74.9901 11.312 75.2861 10.184 75.8781 9.208C76.4701 8.216 77.2861 7.44 78.3261 6.88C79.3821 6.32 80.5821 6.04 81.9261 6.04C83.1741 6.04 84.2701 6.296 85.2141 6.808C86.1741 7.304 86.9021 8.04 87.3981 9.016L85.0941 10.36C84.7101 9.752 84.2381 9.304 83.6781 9.016C83.1341 8.728 82.5421 8.584 81.9021 8.584C81.1661 8.584 80.5021 8.744 79.9101 9.064C79.3181 9.384 78.8541 9.848 78.5181 10.456C78.1821 11.048 78.0141 11.76 78.0141 12.592C78.0141 13.424 78.1821 14.144 78.5181 14.752C78.8541 15.344 79.3181 15.8 79.9101 16.12C80.5021 16.44 81.1661 16.6 81.9021 16.6C82.5421 16.6 83.1341 16.456 83.6781 16.168C84.2381 15.88 84.7101 15.432 85.0941 14.824L87.3981 16.168C86.9021 17.128 86.1741 17.872 85.2141 18.4C84.2701 18.912 83.1741 19.168 81.9261 19.168ZM91.4202 19.168C90.8762 19.168 90.4122 18.984 90.0282 18.616C89.6442 18.232 89.4522 17.752 89.4522 17.176C89.4522 16.568 89.6442 16.088 90.0282 15.736C90.4122 15.368 90.8762 15.184 91.4202 15.184C91.9642 15.184 92.4282 15.368 92.8122 15.736C93.1962 16.088 93.3882 16.568 93.3882 17.176C93.3882 17.752 93.1962 18.232 92.8122 18.616C92.4282 18.984 91.9642 19.168 91.4202 19.168ZM96.3196 19V6.184H99.3196V19H96.3196ZM97.8316 4.072C97.2716 4.072 96.8076 3.896 96.4396 3.544C96.0876 3.192 95.9116 2.768 95.9116 2.272C95.9116 1.76 96.0876 1.336 96.4396 0.999999C96.8076 0.647999 97.2716 0.472 97.8316 0.472C98.3916 0.472 98.8476 0.639999 99.1996 0.975999C99.5676 1.296 99.7516 1.704 99.7516 2.2C99.7516 2.728 99.5756 3.176 99.2236 3.544C98.8716 3.896 98.4076 4.072 97.8316 4.072ZM109.017 19.168C107.705 19.168 106.537 18.888 105.513 18.328C104.489 17.752 103.681 16.968 103.089 15.976C102.497 14.984 102.201 13.856 102.201 12.592C102.201 11.312 102.497 10.184 103.089 9.208C103.681 8.216 104.489 7.44 105.513 6.88C106.537 6.32 107.705 6.04 109.017 6.04C110.345 6.04 111.521 6.32 112.545 6.88C113.585 7.44 114.393 8.208 114.969 9.184C115.561 10.16 115.857 11.296 115.857 12.592C115.857 13.856 115.561 14.984 114.969 15.976C114.393 16.968 113.585 17.752 112.545 18.328C111.521 18.888 110.345 19.168 109.017 19.168ZM109.017 16.6C109.753 16.6 110.409 16.44 110.985 16.12C111.561 15.8 112.009 15.336 112.329 14.728C112.665 14.12 112.833 13.408 112.833 12.592C112.833 11.76 112.665 11.048 112.329 10.456C112.009 9.848 111.561 9.384 110.985 9.064C110.409 8.744 109.761 8.584 109.041 8.584C108.305 8.584 107.649 8.744 107.073 9.064C106.513 9.384 106.065 9.848 105.729 10.456C105.393 11.048 105.225 11.76 105.225 12.592C105.225 13.408 105.393 14.12 105.729 14.728C106.065 15.336 106.513 15.8 107.073 16.12C107.649 16.44 108.297 16.6 109.017 16.6Z" fill="#0064FA"/>
</svg>
