<svg width="254" height="65" viewBox="0 0 254 65" fill="none" xmlns="http://www.w3.org/2000/svg">
<path fill-rule="evenodd" clip-rule="evenodd" d="M71.0129 34.4948C71.1072 33.7826 71.1381 33.0518 71.0999 32.3086C70.7628 25.7474 65.1706 20.7018 58.6095 21.039C52.0484 21.3761 47.0028 26.9683 47.3399 33.5295C47.5236 37.1033 49.2663 40.2275 51.8756 42.277C55.1707 41.7021 58.6418 40.7062 62.1203 39.2699C65.4185 37.9081 68.4114 36.2793 71.0129 34.4948ZM70.546 36.5664C68.1837 38.0667 65.5572 39.434 62.7216 40.6048C59.6618 41.8682 56.5954 42.805 53.6304 43.4217C55.4715 44.4038 57.5947 44.9139 59.8304 44.7991C64.906 44.5383 69.0746 41.1326 70.546 36.5664Z" fill="#D64657"/>
<path fill-rule="evenodd" clip-rule="evenodd" d="M48.7791 33.7348C51.3787 32.1911 54.6118 30.6442 58.2182 29.2874C63.2074 27.4103 67.9255 26.2678 71.509 25.9267C73.3062 25.7556 74.7748 25.7904 75.8346 26.011C76.9325 26.2395 77.3777 26.6166 77.5111 26.9398C77.6445 27.2631 77.5885 27.8288 76.9491 28.7108C76.3318 29.5624 75.2829 30.5444 73.8466 31.5898C70.9827 33.6742 66.7166 35.9118 61.7274 37.7889C56.8703 39.6162 53.7537 40.5883 50.9414 40.9904C50.3427 41.1628 49.7362 41.3179 49.222 41.4091C46.9491 41.8125 43.7305 41.9927 41.0575 42.0746C45.0345 42.6311 47.8227 42.8623 50.8747 42.4662C53.9489 42.0673 57.2487 41.0374 62.286 39.1422C67.3614 37.2328 71.7516 34.9393 74.7472 32.7589C76.2407 31.6719 77.4223 30.5881 78.1626 29.5668C78.8809 28.576 79.3096 27.4617 78.8814 26.4243C78.4532 25.3869 77.3434 24.8514 76.1103 24.5948C74.8391 24.3302 73.2008 24.3073 71.3321 24.4852C67.5838 24.8421 62.7349 26.0246 57.6596 27.9341C53.984 29.3169 50.6723 30.8994 47.9902 32.492L48.7791 33.7348Z" fill="#D64657"/>
<path d="M91.88 39.5V25.5H97.64C98.88 25.5 99.94 25.7 100.82 26.1C101.713 26.5 102.4 27.0733 102.88 27.82C103.36 28.5667 103.6 29.4533 103.6 30.48C103.6 31.5067 103.36 32.3933 102.88 33.14C102.4 33.8867 101.713 34.46 100.82 34.86C99.94 35.26 98.88 35.46 97.64 35.46H93.32L94.48 34.24V39.5H91.88ZM94.48 34.52L93.32 33.26H97.52C98.6667 33.26 99.5267 33.02 100.1 32.54C100.687 32.0467 100.98 31.36 100.98 30.48C100.98 29.5867 100.687 28.9 100.1 28.42C99.5267 27.94 98.6667 27.7 97.52 27.7H93.32L94.48 26.42V34.52ZM105.859 39.5V28.82H108.239V31.76L107.959 30.9C108.279 30.18 108.779 29.6333 109.459 29.26C110.152 28.8867 111.012 28.7 112.039 28.7V31.08C111.932 31.0533 111.832 31.04 111.739 31.04C111.645 31.0267 111.552 31.02 111.459 31.02C110.512 31.02 109.759 31.3 109.199 31.86C108.639 32.4067 108.359 33.2267 108.359 34.32V39.5H105.859ZM119.082 39.64C117.895 39.64 116.855 39.4067 115.962 38.94C115.082 38.46 114.395 37.8067 113.902 36.98C113.422 36.1533 113.182 35.2133 113.182 34.16C113.182 33.0933 113.415 32.1533 113.882 31.34C114.362 30.5133 115.015 29.8667 115.842 29.4C116.682 28.9333 117.635 28.7 118.702 28.7C119.742 28.7 120.669 28.9267 121.482 29.38C122.295 29.8333 122.935 30.4733 123.402 31.3C123.869 32.1267 124.102 33.1 124.102 34.22C124.102 34.3267 124.095 34.4467 124.082 34.58C124.082 34.7133 124.075 34.84 124.062 34.96H115.162V33.3H122.742L121.762 33.82C121.775 33.2067 121.649 32.6667 121.382 32.2C121.115 31.7333 120.749 31.3667 120.282 31.1C119.829 30.8333 119.302 30.7 118.702 30.7C118.089 30.7 117.549 30.8333 117.082 31.1C116.629 31.3667 116.269 31.74 116.002 32.22C115.749 32.6867 115.622 33.24 115.622 33.88V34.28C115.622 34.92 115.769 35.4867 116.062 35.98C116.355 36.4733 116.769 36.8533 117.302 37.12C117.835 37.3867 118.449 37.52 119.142 37.52C119.742 37.52 120.282 37.4267 120.762 37.24C121.242 37.0533 121.669 36.76 122.042 36.36L123.382 37.9C122.902 38.46 122.295 38.8933 121.562 39.2C120.842 39.4933 120.015 39.64 119.082 39.64ZM132.271 39.5V25.5H138.031C139.271 25.5 140.331 25.7 141.211 26.1C142.104 26.5 142.791 27.0733 143.271 27.82C143.751 28.5667 143.991 29.4533 143.991 30.48C143.991 31.5067 143.751 32.3933 143.271 33.14C142.791 33.8733 142.104 34.44 141.211 34.84C140.331 35.2267 139.271 35.42 138.031 35.42H133.711L134.871 34.24V39.5H132.271ZM141.431 39.5L137.891 34.42H140.671L144.231 39.5H141.431ZM134.871 34.52L133.711 33.28H137.911C139.057 33.28 139.917 33.0333 140.491 32.54C141.077 32.0467 141.371 31.36 141.371 30.48C141.371 29.5867 141.077 28.9 140.491 28.42C139.917 27.94 139.057 27.7 137.911 27.7H133.711L134.871 26.42V34.52ZM151.68 39.64C150.493 39.64 149.453 39.4067 148.56 38.94C147.68 38.46 146.993 37.8067 146.5 36.98C146.02 36.1533 145.78 35.2133 145.78 34.16C145.78 33.0933 146.013 32.1533 146.48 31.34C146.96 30.5133 147.613 29.8667 148.44 29.4C149.28 28.9333 150.233 28.7 151.3 28.7C152.34 28.7 153.266 28.9267 154.08 29.38C154.893 29.8333 155.533 30.4733 156 31.3C156.466 32.1267 156.7 33.1 156.7 34.22C156.7 34.3267 156.693 34.4467 156.68 34.58C156.68 34.7133 156.673 34.84 156.66 34.96H147.76V33.3H155.34L154.36 33.82C154.373 33.2067 154.246 32.6667 153.98 32.2C153.713 31.7333 153.346 31.3667 152.88 31.1C152.426 30.8333 151.9 30.7 151.3 30.7C150.686 30.7 150.146 30.8333 149.68 31.1C149.226 31.3667 148.866 31.74 148.6 32.22C148.346 32.6867 148.22 33.24 148.22 33.88V34.28C148.22 34.92 148.366 35.4867 148.66 35.98C148.953 36.4733 149.366 36.8533 149.9 37.12C150.433 37.3867 151.046 37.52 151.74 37.52C152.34 37.52 152.88 37.4267 153.36 37.24C153.84 37.0533 154.266 36.76 154.64 36.36L155.98 37.9C155.5 38.46 154.893 38.8933 154.16 39.2C153.44 39.4933 152.613 39.64 151.68 39.64ZM164.001 39.64C162.881 39.64 161.881 39.4067 161.001 38.94C160.134 38.46 159.454 37.8067 158.961 36.98C158.468 36.1533 158.221 35.2133 158.221 34.16C158.221 33.0933 158.468 32.1533 158.961 31.34C159.454 30.5133 160.134 29.8667 161.001 29.4C161.881 28.9333 162.881 28.7 164.001 28.7C165.041 28.7 165.954 28.9133 166.741 29.34C167.541 29.7533 168.148 30.3667 168.561 31.18L166.641 32.3C166.321 31.7933 165.928 31.42 165.461 31.18C165.008 30.94 164.514 30.82 163.981 30.82C163.368 30.82 162.814 30.9533 162.321 31.22C161.828 31.4867 161.441 31.8733 161.161 32.38C160.881 32.8733 160.741 33.4667 160.741 34.16C160.741 34.8533 160.881 35.4533 161.161 35.96C161.441 36.4533 161.828 36.8333 162.321 37.1C162.814 37.3667 163.368 37.5 163.981 37.5C164.514 37.5 165.008 37.38 165.461 37.14C165.928 36.9 166.321 36.5267 166.641 36.02L168.561 37.14C168.148 37.94 167.541 38.56 166.741 39C165.954 39.4267 165.041 39.64 164.001 39.64ZM175.366 39.64C174.272 39.64 173.299 39.4067 172.446 38.94C171.592 38.46 170.919 37.8067 170.426 36.98C169.932 36.1533 169.686 35.2133 169.686 34.16C169.686 33.0933 169.932 32.1533 170.426 31.34C170.919 30.5133 171.592 29.8667 172.446 29.4C173.299 28.9333 174.272 28.7 175.366 28.7C176.472 28.7 177.452 28.9333 178.306 29.4C179.172 29.8667 179.846 30.5067 180.326 31.32C180.819 32.1333 181.066 33.08 181.066 34.16C181.066 35.2133 180.819 36.1533 180.326 36.98C179.846 37.8067 179.172 38.46 178.306 38.94C177.452 39.4067 176.472 39.64 175.366 39.64ZM175.366 37.5C175.979 37.5 176.526 37.3667 177.006 37.1C177.486 36.8333 177.859 36.4467 178.126 35.94C178.406 35.4333 178.546 34.84 178.546 34.16C178.546 33.4667 178.406 32.8733 178.126 32.38C177.859 31.8733 177.486 31.4867 177.006 31.22C176.526 30.9533 175.986 30.82 175.386 30.82C174.772 30.82 174.226 30.9533 173.746 31.22C173.279 31.4867 172.906 31.8733 172.626 32.38C172.346 32.8733 172.206 33.4667 172.206 34.16C172.206 34.84 172.346 35.4333 172.626 35.94C172.906 36.4467 173.279 36.8333 173.746 37.1C174.226 37.3667 174.766 37.5 175.366 37.5ZM186.003 39.5L181.423 28.82H184.023L187.963 38.24H186.683L190.763 28.82H193.163L188.583 39.5H186.003ZM199.453 39.64C198.266 39.64 197.226 39.4067 196.333 38.94C195.453 38.46 194.766 37.8067 194.273 36.98C193.793 36.1533 193.553 35.2133 193.553 34.16C193.553 33.0933 193.786 32.1533 194.253 31.34C194.733 30.5133 195.386 29.8667 196.213 29.4C197.053 28.9333 198.006 28.7 199.073 28.7C200.113 28.7 201.04 28.9267 201.853 29.38C202.666 29.8333 203.306 30.4733 203.773 31.3C204.24 32.1267 204.473 33.1 204.473 34.22C204.473 34.3267 204.466 34.4467 204.453 34.58C204.453 34.7133 204.446 34.84 204.433 34.96H195.533V33.3H203.113L202.133 33.82C202.146 33.2067 202.02 32.6667 201.753 32.2C201.486 31.7333 201.12 31.3667 200.653 31.1C200.2 30.8333 199.673 30.7 199.073 30.7C198.46 30.7 197.92 30.8333 197.453 31.1C197 31.3667 196.64 31.74 196.373 32.22C196.12 32.6867 195.993 33.24 195.993 33.88V34.28C195.993 34.92 196.14 35.4867 196.433 35.98C196.726 36.4733 197.14 36.8533 197.673 37.12C198.206 37.3867 198.82 37.52 199.513 37.52C200.113 37.52 200.653 37.4267 201.133 37.24C201.613 37.0533 202.04 36.76 202.413 36.36L203.753 37.9C203.273 38.46 202.666 38.8933 201.933 39.2C201.213 39.4933 200.386 39.64 199.453 39.64ZM206.874 39.5V28.82H209.254V31.76L208.974 30.9C209.294 30.18 209.794 29.6333 210.474 29.26C211.168 28.8867 212.028 28.7 213.054 28.7V31.08C212.948 31.0533 212.848 31.04 212.754 31.04C212.661 31.0267 212.568 31.02 212.474 31.02C211.528 31.02 210.774 31.3 210.214 31.86C209.654 32.4067 209.374 33.2267 209.374 34.32V39.5H206.874Z" fill="#D64657"/>
<path d="M254 64H0V66H254V64Z" fill="#EBF3FF" mask="url(#path-1-inside-1_1933_76382)"/>
</svg>
