<svg width="257" height="65" viewBox="0 0 257 65" fill="none" xmlns="http://www.w3.org/2000/svg">
<path fill-rule="evenodd" clip-rule="evenodd" d="M72.5129 34.4948C72.6072 33.7826 72.6381 33.0518 72.5999 32.3086C72.2628 25.7474 66.6706 20.7018 60.1095 21.039C53.5484 21.3761 48.5028 26.9683 48.8399 33.5295C49.0236 37.1033 50.7663 40.2275 53.3756 42.277C56.6707 41.7021 60.1418 40.7062 63.6203 39.2699C66.9185 37.9081 69.9114 36.2793 72.5129 34.4948ZM72.046 36.5664C69.6837 38.0667 67.0572 39.434 64.2216 40.6048C61.1618 41.8682 58.0954 42.805 55.1304 43.4217C56.9715 44.4038 59.0947 44.9139 61.3304 44.7991C66.406 44.5383 70.5746 41.1326 72.046 36.5664Z" fill="#0064FA"/>
<path fill-rule="evenodd" clip-rule="evenodd" d="M50.2791 33.7348C52.8787 32.1911 56.1118 30.6442 59.7182 29.2874C64.7074 27.4103 69.4255 26.2678 73.009 25.9267C74.8062 25.7556 76.2748 25.7904 77.3346 26.011C78.4325 26.2395 78.8777 26.6166 79.0111 26.9398C79.1445 27.2631 79.0885 27.8288 78.4491 28.7108C77.8318 29.5624 76.7829 30.5444 75.3466 31.5898C72.4827 33.6742 68.2166 35.9118 63.2274 37.7889C58.3703 39.6162 55.2537 40.5883 52.4414 40.9904C51.8427 41.1628 51.2362 41.3179 50.722 41.4091C48.4491 41.8125 45.2305 41.9927 42.5575 42.0746C46.5345 42.6311 49.3227 42.8623 52.3747 42.4662C55.4489 42.0673 58.7487 41.0374 63.786 39.1422C68.8614 37.2328 73.2516 34.9393 76.2472 32.7589C77.7407 31.6719 78.9223 30.5881 79.6626 29.5668C80.3809 28.576 80.8096 27.4617 80.3814 26.4243C79.9532 25.3869 78.8434 24.8514 77.6103 24.5948C76.3391 24.3302 74.7008 24.3073 72.8321 24.4852C69.0838 24.8421 64.2349 26.0246 59.1596 27.9341C55.484 29.3169 52.1723 30.8994 49.4902 32.492L50.2791 33.7348Z" fill="#0064FA"/>
<path d="M93.38 39.5V25.5H99.14C100.38 25.5 101.44 25.7 102.32 26.1C103.213 26.5 103.9 27.0733 104.38 27.82C104.86 28.5667 105.1 29.4533 105.1 30.48C105.1 31.5067 104.86 32.3933 104.38 33.14C103.9 33.8867 103.213 34.46 102.32 34.86C101.44 35.26 100.38 35.46 99.14 35.46H94.82L95.98 34.24V39.5H93.38ZM95.98 34.52L94.82 33.26H99.02C100.167 33.26 101.027 33.02 101.6 32.54C102.187 32.0467 102.48 31.36 102.48 30.48C102.48 29.5867 102.187 28.9 101.6 28.42C101.027 27.94 100.167 27.7 99.02 27.7H94.82L95.98 26.42V34.52ZM107.359 39.5V28.82H109.739V31.76L109.459 30.9C109.779 30.18 110.279 29.6333 110.959 29.26C111.652 28.8867 112.512 28.7 113.539 28.7V31.08C113.432 31.0533 113.332 31.04 113.239 31.04C113.145 31.0267 113.052 31.02 112.959 31.02C112.012 31.02 111.259 31.3 110.699 31.86C110.139 32.4067 109.859 33.2267 109.859 34.32V39.5H107.359ZM120.582 39.64C119.395 39.64 118.355 39.4067 117.462 38.94C116.582 38.46 115.895 37.8067 115.402 36.98C114.922 36.1533 114.682 35.2133 114.682 34.16C114.682 33.0933 114.915 32.1533 115.382 31.34C115.862 30.5133 116.515 29.8667 117.342 29.4C118.182 28.9333 119.135 28.7 120.202 28.7C121.242 28.7 122.169 28.9267 122.982 29.38C123.795 29.8333 124.435 30.4733 124.902 31.3C125.369 32.1267 125.602 33.1 125.602 34.22C125.602 34.3267 125.595 34.4467 125.582 34.58C125.582 34.7133 125.575 34.84 125.562 34.96H116.662V33.3H124.242L123.262 33.82C123.275 33.2067 123.149 32.6667 122.882 32.2C122.615 31.7333 122.249 31.3667 121.782 31.1C121.329 30.8333 120.802 30.7 120.202 30.7C119.589 30.7 119.049 30.8333 118.582 31.1C118.129 31.3667 117.769 31.74 117.502 32.22C117.249 32.6867 117.122 33.24 117.122 33.88V34.28C117.122 34.92 117.269 35.4867 117.562 35.98C117.855 36.4733 118.269 36.8533 118.802 37.12C119.335 37.3867 119.949 37.52 120.642 37.52C121.242 37.52 121.782 37.4267 122.262 37.24C122.742 37.0533 123.169 36.76 123.542 36.36L124.882 37.9C124.402 38.46 123.795 38.8933 123.062 39.2C122.342 39.4933 121.515 39.64 120.582 39.64ZM133.771 39.5V25.5H139.531C140.771 25.5 141.831 25.7 142.711 26.1C143.604 26.5 144.291 27.0733 144.771 27.82C145.251 28.5667 145.491 29.4533 145.491 30.48C145.491 31.5067 145.251 32.3933 144.771 33.14C144.291 33.8733 143.604 34.44 142.711 34.84C141.831 35.2267 140.771 35.42 139.531 35.42H135.211L136.371 34.24V39.5H133.771ZM142.931 39.5L139.391 34.42H142.171L145.731 39.5H142.931ZM136.371 34.52L135.211 33.28H139.411C140.557 33.28 141.417 33.0333 141.991 32.54C142.577 32.0467 142.871 31.36 142.871 30.48C142.871 29.5867 142.577 28.9 141.991 28.42C141.417 27.94 140.557 27.7 139.411 27.7H135.211L136.371 26.42V34.52ZM153.18 39.64C151.993 39.64 150.953 39.4067 150.06 38.94C149.18 38.46 148.493 37.8067 148 36.98C147.52 36.1533 147.28 35.2133 147.28 34.16C147.28 33.0933 147.513 32.1533 147.98 31.34C148.46 30.5133 149.113 29.8667 149.94 29.4C150.78 28.9333 151.733 28.7 152.8 28.7C153.84 28.7 154.766 28.9267 155.58 29.38C156.393 29.8333 157.033 30.4733 157.5 31.3C157.966 32.1267 158.2 33.1 158.2 34.22C158.2 34.3267 158.193 34.4467 158.18 34.58C158.18 34.7133 158.173 34.84 158.16 34.96H149.26V33.3H156.84L155.86 33.82C155.873 33.2067 155.746 32.6667 155.48 32.2C155.213 31.7333 154.846 31.3667 154.38 31.1C153.926 30.8333 153.4 30.7 152.8 30.7C152.186 30.7 151.646 30.8333 151.18 31.1C150.726 31.3667 150.366 31.74 150.1 32.22C149.846 32.6867 149.72 33.24 149.72 33.88V34.28C149.72 34.92 149.866 35.4867 150.16 35.98C150.453 36.4733 150.866 36.8533 151.4 37.12C151.933 37.3867 152.546 37.52 153.24 37.52C153.84 37.52 154.38 37.4267 154.86 37.24C155.34 37.0533 155.766 36.76 156.14 36.36L157.48 37.9C157 38.46 156.393 38.8933 155.66 39.2C154.94 39.4933 154.113 39.64 153.18 39.64ZM165.501 39.64C164.381 39.64 163.381 39.4067 162.501 38.94C161.634 38.46 160.954 37.8067 160.461 36.98C159.968 36.1533 159.721 35.2133 159.721 34.16C159.721 33.0933 159.968 32.1533 160.461 31.34C160.954 30.5133 161.634 29.8667 162.501 29.4C163.381 28.9333 164.381 28.7 165.501 28.7C166.541 28.7 167.454 28.9133 168.241 29.34C169.041 29.7533 169.648 30.3667 170.061 31.18L168.141 32.3C167.821 31.7933 167.428 31.42 166.961 31.18C166.508 30.94 166.014 30.82 165.481 30.82C164.868 30.82 164.314 30.9533 163.821 31.22C163.328 31.4867 162.941 31.8733 162.661 32.38C162.381 32.8733 162.241 33.4667 162.241 34.16C162.241 34.8533 162.381 35.4533 162.661 35.96C162.941 36.4533 163.328 36.8333 163.821 37.1C164.314 37.3667 164.868 37.5 165.481 37.5C166.014 37.5 166.508 37.38 166.961 37.14C167.428 36.9 167.821 36.5267 168.141 36.02L170.061 37.14C169.648 37.94 169.041 38.56 168.241 39C167.454 39.4267 166.541 39.64 165.501 39.64ZM176.866 39.64C175.772 39.64 174.799 39.4067 173.946 38.94C173.092 38.46 172.419 37.8067 171.926 36.98C171.432 36.1533 171.186 35.2133 171.186 34.16C171.186 33.0933 171.432 32.1533 171.926 31.34C172.419 30.5133 173.092 29.8667 173.946 29.4C174.799 28.9333 175.772 28.7 176.866 28.7C177.972 28.7 178.952 28.9333 179.806 29.4C180.672 29.8667 181.346 30.5067 181.826 31.32C182.319 32.1333 182.566 33.08 182.566 34.16C182.566 35.2133 182.319 36.1533 181.826 36.98C181.346 37.8067 180.672 38.46 179.806 38.94C178.952 39.4067 177.972 39.64 176.866 39.64ZM176.866 37.5C177.479 37.5 178.026 37.3667 178.506 37.1C178.986 36.8333 179.359 36.4467 179.626 35.94C179.906 35.4333 180.046 34.84 180.046 34.16C180.046 33.4667 179.906 32.8733 179.626 32.38C179.359 31.8733 178.986 31.4867 178.506 31.22C178.026 30.9533 177.486 30.82 176.886 30.82C176.272 30.82 175.726 30.9533 175.246 31.22C174.779 31.4867 174.406 31.8733 174.126 32.38C173.846 32.8733 173.706 33.4667 173.706 34.16C173.706 34.84 173.846 35.4333 174.126 35.94C174.406 36.4467 174.779 36.8333 175.246 37.1C175.726 37.3667 176.266 37.5 176.866 37.5ZM187.503 39.5L182.923 28.82H185.523L189.463 38.24H188.183L192.263 28.82H194.663L190.083 39.5H187.503ZM200.953 39.64C199.766 39.64 198.726 39.4067 197.833 38.94C196.953 38.46 196.266 37.8067 195.773 36.98C195.293 36.1533 195.053 35.2133 195.053 34.16C195.053 33.0933 195.286 32.1533 195.753 31.34C196.233 30.5133 196.886 29.8667 197.713 29.4C198.553 28.9333 199.506 28.7 200.573 28.7C201.613 28.7 202.54 28.9267 203.353 29.38C204.166 29.8333 204.806 30.4733 205.273 31.3C205.74 32.1267 205.973 33.1 205.973 34.22C205.973 34.3267 205.966 34.4467 205.953 34.58C205.953 34.7133 205.946 34.84 205.933 34.96H197.033V33.3H204.613L203.633 33.82C203.646 33.2067 203.52 32.6667 203.253 32.2C202.986 31.7333 202.62 31.3667 202.153 31.1C201.7 30.8333 201.173 30.7 200.573 30.7C199.96 30.7 199.42 30.8333 198.953 31.1C198.5 31.3667 198.14 31.74 197.873 32.22C197.62 32.6867 197.493 33.24 197.493 33.88V34.28C197.493 34.92 197.64 35.4867 197.933 35.98C198.226 36.4733 198.64 36.8533 199.173 37.12C199.706 37.3867 200.32 37.52 201.013 37.52C201.613 37.52 202.153 37.4267 202.633 37.24C203.113 37.0533 203.54 36.76 203.913 36.36L205.253 37.9C204.773 38.46 204.166 38.8933 203.433 39.2C202.713 39.4933 201.886 39.64 200.953 39.64ZM208.374 39.5V28.82H210.754V31.76L210.474 30.9C210.794 30.18 211.294 29.6333 211.974 29.26C212.668 28.8867 213.528 28.7 214.554 28.7V31.08C214.448 31.0533 214.348 31.04 214.254 31.04C214.161 31.0267 214.068 31.02 213.974 31.02C213.028 31.02 212.274 31.3 211.714 31.86C211.154 32.4067 210.874 33.2267 210.874 34.32V39.5H208.374Z" fill="#0064FA"/>
<path d="M257 64H0V66H257V64Z" fill="#EBF3FF" mask="url(#path-1-inside-1_1927_70643)"/>
</svg>
