<svg width="28" height="28" viewBox="0 0 28 28" fill="none" xmlns="http://www.w3.org/2000/svg">
<path d="M17.7818 25.9819H17.6301C12.4501 25.9819 9.95346 23.9402 9.52179 19.3669C9.47512 18.8886 9.82512 18.4569 10.3151 18.4102C10.7818 18.3636 11.2251 18.7252 11.2718 19.2036C11.6101 22.8669 13.3368 24.2319 17.6418 24.2319H17.7935C22.5418 24.2319 24.2218 22.5519 24.2218 17.8036V10.1969C24.2218 5.44855 22.5418 3.76855 17.7935 3.76855H17.6418C13.3135 3.76855 11.5868 5.15689 11.2718 8.89022C11.2135 9.36855 10.8051 9.73022 10.3151 9.68355C9.82512 9.64855 9.47512 9.21689 9.51012 8.73855C9.90679 4.09522 12.4151 2.01855 17.6301 2.01855H17.7818C23.5101 2.01855 25.9601 4.46855 25.9601 10.1969V17.8036C25.9601 23.5319 23.5101 25.9819 17.7818 25.9819Z" fill="#0064FA"/>
<path d="M6.20896 18.5267C6.38396 18.7017 6.60562 18.7834 6.82729 18.7834C7.04896 18.7834 7.28229 18.7017 7.44562 18.5267C7.78396 18.1884 7.78396 17.6284 7.44562 17.29L5.03081 14.8752H17.5019C17.9803 14.8752 18.3769 14.4786 18.3769 14.0002C18.3769 13.5219 17.9803 13.1252 17.5019 13.1252H5.03044L7.44562 10.71C7.78396 10.3717 7.78396 9.81171 7.44562 9.47337C7.10729 9.13504 6.54729 9.13504 6.20896 9.47337L2.30062 13.3817C1.96229 13.72 1.96229 14.28 2.30062 14.6184L6.20896 18.5267Z" fill="#0064FA"/>
</svg>
