<svg width="25" height="24" viewBox="0 0 25 24" fill="none" xmlns="http://www.w3.org/2000/svg">
<g clip-path="url(#clip0_760_11001)">
<path d="M21.221 0.204742L21.221 0.204696L5.22099 3.5747L5.21226 3.57654L5.21221 3.57622C4.31385 3.69942 3.46772 4.071 2.76912 4.6491C2.07052 5.22719 1.5472 5.98885 1.25808 6.8483C0.968965 7.70775 0.92554 8.63085 1.1327 9.51364C1.33985 10.3964 1.78936 11.2038 2.43059 11.845C2.4306 11.845 2.43061 11.845 2.43061 11.845L4.14859 13.562L4.14861 13.562C4.25321 13.6666 4.33617 13.7907 4.39273 13.9274C4.44929 14.0641 4.47835 14.2106 4.47823 14.3585M21.221 0.204742L4.35323 14.3584M21.221 0.204742L21.2243 0.203949M21.221 0.204742L21.2243 0.203949M4.47823 14.3585L4.35323 14.3584M4.47823 14.3585V14.3584H4.35323M4.47823 14.3585V17.526M4.35323 14.3584V17.5264M4.47823 17.526C4.47823 17.5259 4.47823 17.5259 4.47823 17.5258L4.35323 17.5264M4.47823 17.526C4.48039 17.9526 4.5786 18.3732 4.76558 18.7566L4.77069 18.7671L4.77406 18.7704L4.78315 18.7887C5.06396 19.3533 5.52259 19.8099 6.0884 20.0882L6.10698 20.0974L6.11055 20.1009M4.47823 17.526V17.5264H4.35323M4.35323 17.5264C4.35544 17.9716 4.45786 18.4105 4.6529 18.8107C4.65301 18.8109 4.65312 18.8112 4.65323 18.8114L6.11055 20.1009M6.11055 20.1009L6.12102 20.106C6.50439 20.293 6.92495 20.3912 7.35147 20.3934C7.3516 20.3934 7.35172 20.3934 7.35185 20.3934L10.5191 20.3934H10.5192V20.5184L6.11055 20.1009ZM21.2243 0.203949C21.6995 0.0902608 22.196 0.101054 22.6658 0.235287C23.1356 0.36952 23.5629 0.622654 23.9063 0.970239L23.9072 0.971151C24.2581 1.31897 24.5125 1.75201 24.6455 2.2278C24.7785 2.70359 24.7856 3.20578 24.6659 3.68512L24.6659 3.6851L24.6649 3.68963L21.2899 19.7246L21.2897 19.7246L21.2885 19.7326C21.1612 20.6196 20.7886 21.4533 20.2127 22.1398C19.6368 22.8262 18.8805 23.3381 18.0292 23.6176L18.0283 23.6179M21.2243 0.203949L18.0283 23.6179M18.0283 23.6179C17.524 23.7877 16.9955 23.8747 16.4633 23.8754L18.0283 23.6179ZM21.4646 2.17476L21.7619 1.87744L21.3505 1.96406L5.51537 5.29782C4.92683 5.36417 4.36953 5.59758 3.90933 5.97053C3.44781 6.34454 3.10336 6.84316 2.91687 7.40716C2.72483 7.95731 2.69359 8.55083 2.82683 9.11812C2.9601 9.68552 3.25238 10.2032 3.6694 10.6103C3.66958 10.6105 3.66975 10.6107 3.66993 10.6108L5.38789 12.3268L5.38796 12.3269C5.65499 12.5932 5.86657 12.9098 6.01046 13.2585C6.15434 13.6071 6.22768 13.9808 6.22623 14.3579V14.3584V17.1134V17.4152L6.43963 17.2018L21.4646 2.17476ZM14.2698 21.2088L14.27 21.2089C14.6815 21.6189 15.1991 21.9062 15.7647 22.0383C16.3304 22.1705 16.9217 22.1424 17.4722 21.9572C18.0228 21.772 18.5108 21.437 18.8816 20.9898C19.2514 20.5437 19.4899 20.0036 19.5704 19.4299L22.9136 3.52609L23 3.11495L22.7029 3.41198L7.67586 18.434L7.46238 18.6474H7.76423H10.5192H10.5195C10.8967 18.6464 11.2704 18.7203 11.6188 18.8647C11.9673 19.009 12.2836 19.2211 12.5496 19.4885L12.5498 19.4888L14.2698 21.2088Z" fill="#7D7F82" stroke="white" stroke-width="0.25"/>
</g>
<defs>
<clipPath id="clip0_760_11001">
<rect width="24" height="24" fill="white" transform="translate(0.875)"/>
</clipPath>
</defs>
</svg>
