<svg width="25" height="24" viewBox="0 0 25 24" fill="none" xmlns="http://www.w3.org/2000/svg">
<g clip-path="url(#clip0_3_163070)">
<path d="M23.9072 0.970174L23.9063 0.969262C23.5629 0.621678 23.1356 0.368543 22.6658 0.234311C22.196 0.100078 21.6995 0.0892842 21.2243 0.202973L21.221 0.203765L21.221 0.20372L5.22099 3.57372L5.21226 3.57556L5.21221 3.57524C4.31385 3.69845 3.46772 4.07002 2.76912 4.64812C2.07052 5.22622 1.5472 5.98788 1.25808 6.84732C0.968965 7.70677 0.92554 8.62987 1.1327 9.51266C1.33985 10.3954 1.78936 11.2029 2.43059 11.844C2.4306 11.844 2.43061 11.844 2.43061 11.844L4.14859 13.561L4.14861 13.561C4.25321 13.6656 4.33617 13.7898 4.39273 13.9264C4.44929 14.0631 4.47835 14.2096 4.47823 14.3575M23.9072 0.970174L4.35323 14.3574M23.9072 0.970174C24.2581 1.31799 24.5125 1.75103 24.6455 2.22682C24.7785 2.70261 24.7856 3.2048 24.6659 3.68414L24.6659 3.68412L24.6649 3.68866L21.2899 19.7237L21.2897 19.7236L21.2885 19.7316C21.1612 20.6186 20.7886 21.4523 20.2127 22.1388C19.6368 22.8252 18.8805 23.3371 18.0292 23.6166L18.0283 23.6169C17.524 23.7868 16.9955 23.8737 16.4633 23.8744M23.9072 0.970174L10.5191 20.3924M4.47823 14.3575L4.35323 14.3574M4.47823 14.3575V14.3574H4.35323M4.47823 14.3575V17.5251M4.35323 14.3574V17.5254M4.47823 17.5251C4.47823 17.525 4.47823 17.5249 4.47823 17.5248L4.35323 17.5254M4.47823 17.5251C4.48039 17.9516 4.5786 18.3722 4.76558 18.7556L4.77069 18.7661M4.47823 17.5251V17.5254H4.35323M4.35323 17.5254C4.35544 17.9706 4.45786 18.4096 4.6529 18.8097M12.9432 22.5264C13.4038 22.992 13.9519 23.3619 14.556 23.6147C15.1601 23.8675 15.8083 23.9983 16.4632 23.9994M12.9432 22.5264L21.1952 0.0814036C21.6913 -0.0372872 22.2097 -0.0260189 22.7002 0.11412C23.1907 0.254259 23.6367 0.518531 23.9952 0.881404C24.3615 1.24447 24.627 1.69651 24.7659 2.19317C24.9047 2.68982 24.9121 3.21404 24.7872 3.7144L21.4122 19.7494C21.2816 20.6594 20.8993 21.5148 20.3085 22.2191C19.7176 22.9234 18.9417 23.4486 18.0682 23.7354C17.551 23.9096 17.009 23.9987 16.4632 23.9994M12.9432 22.5264L11.2262 20.8094L12.9432 22.5264ZM16.4632 23.9994L16.4634 23.8744C16.4634 23.8744 16.4633 23.8744 16.4633 23.8744M16.4632 23.9994L16.4631 23.8744C16.4631 23.8744 16.4632 23.8744 16.4633 23.8744M16.4633 23.8744C15.8249 23.8733 15.1931 23.7458 14.6043 23.4994C14.0153 23.253 13.481 22.8924 13.0321 22.4385L13.0316 22.438L11.3146 20.721L11.3145 20.7209C11.1034 20.5103 10.8173 20.3922 10.5191 20.3924M10.5191 20.3924H10.5192V20.5174L10.5191 20.3924ZM10.5191 20.3924L7.35185 20.3924L7.35123 20.5174V20.3924H7.35147H10.5191ZM4.77069 18.7661L4.78162 18.7885L4.80748 18.8415L4.73554 18.9045L4.72754 18.9115L4.67555 18.8521C4.67411 18.8492 4.67267 18.8463 4.67123 18.8434L4.64523 18.8174L4.65323 18.8104C4.65312 18.8102 4.65301 18.81 4.6529 18.8097M4.77069 18.7661L4.76198 18.7574L4.75962 18.755L4.73362 18.729L4.6529 18.8097M4.77069 18.7661L4.6529 18.8097M6.06623 20.2174C6.06645 20.2175 6.06668 20.2176 6.0669 20.2177L6.14762 20.137L6.12162 20.111L6.11926 20.1087L6.11055 20.0999L6.08765 20.0888L6.03511 20.0632L5.97216 20.1351L5.96516 20.1431L6.02471 20.1952C6.02755 20.1966 6.03039 20.198 6.03323 20.1994L6.05923 20.2254L6.06623 20.2174ZM5.38789 12.3258L5.38796 12.3259C5.65499 12.5922 5.86657 12.9089 6.01046 13.2575C6.15434 13.6061 6.22768 13.9798 6.22623 14.3569V14.3574V17.1124V17.4142L6.43963 17.2008L21.4646 2.17379L21.7619 1.87647L21.3505 1.96308L5.51537 5.29685C4.92683 5.3632 4.36953 5.5966 3.90933 5.96955C3.44781 6.34356 3.10336 6.84219 2.91687 7.40618C2.72483 7.95634 2.69359 8.54985 2.82683 9.11714C2.9601 9.68455 3.25239 10.2022 3.66941 10.6094C3.66958 10.6095 3.66975 10.6097 3.66993 10.6099L5.38789 12.3258ZM14.2698 21.2078L14.27 21.2079C14.6815 21.618 15.1991 21.9052 15.7647 22.0374C16.3304 22.1695 16.9217 22.1414 17.4722 21.9562C18.0228 21.771 18.5108 21.436 18.8816 20.9888C19.2514 20.5428 19.4899 20.0027 19.5704 19.4289L22.9136 3.52512L23 3.11397L22.7029 3.411L7.67586 18.433L7.46238 18.6464H7.76423H10.5192H10.5195C10.8967 18.6455 11.2704 18.7193 11.6188 18.8637C11.9673 19.0081 12.2836 19.2201 12.5496 19.4875L12.5498 19.4878L14.2698 21.2078Z" fill="#7D7F82" stroke="white" stroke-width="0.25"/>
</g>
<defs>
<clipPath id="clip0_3_163070">
<rect width="24" height="24" fill="white" transform="translate(0.875)"/>
</clipPath>
</defs>
</svg>
