<svg width="25" height="24" viewBox="0 0 25 24" fill="none" xmlns="http://www.w3.org/2000/svg">
<g clip-path="url(#clip0_1460_36796)">
<path d="M23.9053 0.970785L23.9044 0.969872C23.5609 0.622288 23.1337 0.369154 22.6639 0.234921C22.1941 0.100688 21.6976 0.0898946 21.2224 0.203583L21.219 0.204376L21.219 0.20433L5.21904 3.57433L5.2103 3.57617L5.21026 3.57585C4.3119 3.69906 3.46577 4.07063 2.76717 4.64873C2.06857 5.22683 1.54525 5.98849 1.25613 6.84793C0.967011 7.70738 0.923587 8.63048 1.13074 9.51327C1.3379 10.3961 1.78741 11.2035 2.42864 11.8446C2.42865 11.8446 2.42865 11.8446 2.42866 11.8446L4.14664 13.5616L4.14665 13.5616C4.25126 13.6662 4.33422 13.7904 4.39078 13.927C4.44734 14.0637 4.47639 14.2102 4.47628 14.3581M23.9053 0.970785L4.35128 14.358M23.9053 0.970785C24.2561 1.3186 24.5105 1.75164 24.6435 2.22743C24.7766 2.70322 24.7836 3.20542 24.664 3.68475L24.6639 3.68473L24.663 3.68927L21.288 19.7243L21.2877 19.7242L21.2865 19.7323C21.1593 20.6192 20.7866 21.4529 20.2107 22.1394C19.6349 22.8258 18.8786 23.3377 18.0273 23.6172L18.0264 23.6175C17.522 23.7874 16.9935 23.8743 16.4613 23.875M23.9053 0.970785L10.5172 20.393M4.47628 14.3581L4.35128 14.358M4.47628 14.3581V14.358H4.35128M4.47628 14.3581V17.5257M4.35128 14.358V17.526M4.47628 17.5257C4.47628 17.5256 4.47628 17.5255 4.47628 17.5254L4.35128 17.526M4.47628 17.5257C4.47843 17.9522 4.57665 18.3728 4.76363 18.7562L4.76874 18.7667M4.47628 17.5257V17.526H4.35128M4.35128 17.526C4.35348 17.9712 4.45591 18.4102 4.65095 18.8103M12.9413 22.527C13.4018 22.9926 13.9499 23.3625 14.5541 23.6153C15.1582 23.8681 15.8064 23.9989 16.4613 24M12.9413 22.527L21.1933 0.0820139C21.6894 -0.0366769 22.2077 -0.0254085 22.6982 0.11473C23.1887 0.254869 23.6348 0.519141 23.9933 0.882014C24.3595 1.24508 24.6251 1.69712 24.7639 2.19378C24.9028 2.69043 24.9101 3.21465 24.7853 3.71501L21.4103 19.75C21.2797 20.66 20.8974 21.5154 20.3065 22.2197C19.7156 22.924 18.9397 23.4492 18.0663 23.736C17.5491 23.9102 17.007 23.9993 16.4613 24M12.9413 22.527L11.2243 20.81L12.9413 22.527ZM16.4613 24L16.4615 23.875C16.4614 23.875 16.4614 23.875 16.4613 23.875M16.4613 24L16.4611 23.875C16.4612 23.875 16.4613 23.875 16.4613 23.875M16.4613 23.875C15.823 23.8739 15.1912 23.7464 14.6023 23.5C14.0134 23.2536 13.4791 22.893 13.0302 22.4391L13.0297 22.4386L11.3127 20.7216L11.3126 20.7215C11.1014 20.5109 10.8154 20.3928 10.5172 20.393M10.5172 20.393H10.5173V20.518L10.5172 20.393ZM10.5172 20.393L7.3499 20.393L7.34928 20.518V20.393H7.34952H10.5172ZM4.76874 18.7667L4.77967 18.7891L4.80553 18.8421L4.73359 18.9051L4.72559 18.9121L4.6736 18.8527C4.67215 18.8498 4.67071 18.8469 4.66928 18.844L4.64328 18.818L4.65128 18.811C4.65117 18.8108 4.65106 18.8106 4.65095 18.8103M4.76874 18.7667L4.76002 18.758L4.75766 18.7556L4.73166 18.7296L4.65095 18.8103M4.76874 18.7667L4.65095 18.8103M6.06428 20.218C6.0645 20.2181 6.06473 20.2182 6.06495 20.2183L6.14566 20.1376L6.11966 20.1116L6.11731 20.1093L6.1086 20.1006L6.08569 20.0894L6.03316 20.0638L5.97021 20.1357L5.96321 20.1437L6.02276 20.1958C6.0256 20.1972 6.02844 20.1986 6.03128 20.2L6.05728 20.226L6.06428 20.218ZM5.38594 12.3265L5.38601 12.3265C5.65304 12.5928 5.86462 12.9095 6.0085 13.2581C6.15239 13.6067 6.22573 13.9804 6.22428 14.3575V14.358V17.113V17.4148L6.43767 17.2014L21.4627 2.1744L21.76 1.87708L21.3485 1.9637L5.51341 5.29746C4.92488 5.36381 4.36758 5.59721 3.90737 5.97016C3.44586 6.34418 3.1014 6.8428 2.91492 7.40679C2.72287 7.95695 2.69163 8.55046 2.82488 9.11775C2.95814 9.68516 3.25043 10.2028 3.66746 10.61C3.66763 10.6101 3.6678 10.6103 3.66797 10.6105L5.38594 12.3265ZM14.2679 21.2084L14.268 21.2086C14.6795 21.6186 15.1971 21.9058 15.7628 22.038C16.3284 22.1702 16.9197 22.1421 17.4703 21.9568C18.0208 21.7716 18.5089 21.4366 18.8796 20.9894C19.2494 20.5434 19.4879 20.0033 19.5685 19.4295L22.9116 3.52573L22.998 3.11458L22.7009 3.41161L7.6739 18.4336L7.46043 18.647H7.76228H10.5173H10.5176C10.8948 18.6461 11.2684 18.7199 11.6169 18.8643C11.9653 19.0087 12.2817 19.2207 12.5476 19.4882L12.5479 19.4884L14.2679 21.2084Z" fill="#7D7F82" stroke="white" stroke-width="0.25"/>
</g>
<defs>
<clipPath id="clip0_1460_36796">
<rect width="24" height="24" fill="white" transform="translate(0.875)"/>
</clipPath>
</defs>
</svg>
