<svg width="20" height="20" viewBox="0 0 20 20" fill="none" xmlns="http://www.w3.org/2000/svg">
<path d="M9.99984 18.9596C5.05817 18.9596 1.0415 14.943 1.0415 10.0013C1.0415 5.05964 5.05817 1.04297 9.99984 1.04297C14.9415 1.04297 18.9582 5.05964 18.9582 10.0013C18.9582 14.943 14.9415 18.9596 9.99984 18.9596ZM9.99984 2.29297C5.74984 2.29297 2.2915 5.7513 2.2915 10.0013C2.2915 14.2513 5.74984 17.7096 9.99984 17.7096C14.2498 17.7096 17.7082 14.2513 17.7082 10.0013C17.7082 5.7513 14.2498 2.29297 9.99984 2.29297Z" fill="white"/>
<path d="M13.3332 10.625H6.6665C6.32484 10.625 6.0415 10.3417 6.0415 10C6.0415 9.65833 6.32484 9.375 6.6665 9.375H13.3332C13.6748 9.375 13.9582 9.65833 13.9582 10C13.9582 10.3417 13.6748 10.625 13.3332 10.625Z" fill="white"/>
<path d="M10 13.9596C9.65833 13.9596 9.375 13.6763 9.375 13.3346V6.66797C9.375 6.3263 9.65833 6.04297 10 6.04297C10.3417 6.04297 10.625 6.3263 10.625 6.66797V13.3346C10.625 13.6763 10.3417 13.9596 10 13.9596Z" fill="white"/>
</svg>
