<svg width="33" height="33" viewBox="0 0 33 33" fill="none" xmlns="http://www.w3.org/2000/svg">
<path d="M27.9708 12.7915L27.9339 12.6446L27.9338 12.6443C26.6274 7.49335 22.4219 3.09101 16.7475 3.09101C11.0658 3.09101 6.86765 7.476 5.56119 12.637L5.56105 12.6376L5.52363 12.7881L5.36726 12.8254L27.9708 12.7915ZM27.9708 12.7915L28.121 12.8281L28.1218 12.8282C29.4687 13.1643 30.4245 14.3656 30.4245 15.7372V19.4665C30.4245 20.8069 29.5158 21.9879 28.2103 22.3524C28.2102 22.3524 28.2102 22.3524 28.2101 22.3524L28.0444 22.3993L28.0215 22.5688L28.0215 22.5689C27.6234 25.5009 25.0657 27.7037 22.0644 27.7037H19.9201L19.8513 27.8587L19.8512 27.859C19.5101 28.6225 18.7411 29.1169 17.8961 29.1169H15.5765C14.3974 29.1169 13.4378 28.1749 13.4378 27.0087C13.4378 25.8425 14.3974 24.9005 15.5765 24.9005H17.8961C18.7411 24.9005 19.5101 25.395 19.8512 26.1585L19.8513 26.1587L19.9201 26.3138H22.0644C24.2778 26.3138 26.1842 24.7469 26.5904 22.6088L26.5905 22.6086L26.6328 22.3874L26.415 22.3164L26.4149 22.3164C25.1742 21.9108 24.3307 20.7603 24.3307 19.469V15.7421C24.3307 14.4919 25.122 13.3697 26.3077 12.9308L27.9708 12.7915ZM26.5338 12.8469L26.3078 12.9308L5.36717 12.8254C4.00638 13.1489 3.0431 14.3609 3.0431 15.7421V19.469C3.0431 21.1283 4.41132 22.4727 6.09125 22.4727C7.77118 22.4727 9.1394 21.1283 9.1394 19.469V15.7396C9.1394 14.4969 8.35335 13.3775 7.17812 12.9335L7.17767 12.9334L6.95386 12.8497L7.01879 12.6243L7.0189 12.624C8.27825 8.20319 11.8896 4.48093 16.745 4.48093C21.5905 4.48093 25.2118 8.20816 26.4687 12.6191L26.4687 12.6192L26.5338 12.8469ZM6.21105 14.1348L6.2184 14.1356H6.22579H6.22773C7.07382 14.2062 7.72966 14.9064 7.72966 15.7396L7.72966 19.4665C7.72966 20.3538 6.99516 21.0779 6.09125 21.0779C5.18472 21.0779 4.45283 20.3562 4.45283 19.469V15.7396C4.45283 14.9011 5.10977 14.2042 5.97352 14.1353C5.99316 14.1341 6.00935 14.1329 6.02389 14.1317C6.04817 14.1298 6.06784 14.1282 6.09125 14.1282C6.13114 14.1282 6.17107 14.1304 6.21105 14.1348ZM17.8936 27.7246H15.574C15.1688 27.7246 14.845 27.4008 14.845 27.0087C14.845 26.6147 15.1708 26.2929 15.574 26.2929H17.8936C18.2988 26.2929 18.6226 26.6167 18.6226 27.0087C18.6226 27.4005 18.2966 27.7246 17.8936 27.7246ZM29.0148 19.469C29.0148 20.3563 28.2803 21.0804 27.3764 21.0804C26.4702 21.0804 25.738 20.3541 25.738 19.469V15.7396C25.738 14.8523 26.4725 14.1282 27.3764 14.1282C28.2825 14.1282 29.0148 14.8545 29.0148 15.7396V19.469Z" fill="#0064FA" stroke="#0064FA" stroke-width="0.271103"/>
</svg>
