<svg width="33" height="33" viewBox="0 0 33 33" fill="none" xmlns="http://www.w3.org/2000/svg">
<path d="M27.9707 12.7915L27.9338 12.6446L27.9338 12.6443C26.6273 7.49335 22.4218 3.09101 16.7475 3.09101C11.0658 3.09101 6.86759 7.476 5.56113 12.637L5.56099 12.6376L5.52357 12.7881L5.36719 12.8254L27.9707 12.7915ZM27.9707 12.7915L28.121 12.8281L28.1217 12.8282C29.4686 13.1643 30.4245 14.3656 30.4245 15.7372V19.4665C30.4245 20.8069 29.5158 21.9879 28.2102 22.3524C28.2102 22.3524 28.2101 22.3524 28.21 22.3524L28.0444 22.3993L28.0214 22.5688L28.0214 22.5689C27.6234 25.5009 25.0656 27.7037 22.0644 27.7037H19.9201L19.8512 27.8587L19.8511 27.859C19.51 28.6225 18.741 29.1169 17.896 29.1169H15.5764C14.3973 29.1169 13.4377 28.1749 13.4377 27.0087C13.4377 25.8425 14.3973 24.9005 15.5764 24.9005H17.896C18.741 24.9005 19.51 25.395 19.8511 26.1585L19.8512 26.1587L19.9201 26.3138H22.0644C24.2777 26.3138 26.1842 24.7469 26.5904 22.6088L26.5904 22.6086L26.6327 22.3874L26.415 22.3164L26.4148 22.3164C25.1741 21.9108 24.3307 20.7603 24.3307 19.469V15.7421C24.3307 14.4919 25.1219 13.3697 26.3076 12.9308L27.9707 12.7915ZM26.5338 12.8469L26.3077 12.9308L5.3671 12.8254C4.00632 13.1489 3.04304 14.3609 3.04304 15.7421V19.469C3.04304 21.1283 4.41126 22.4727 6.09119 22.4727C7.77111 22.4727 9.13933 21.1283 9.13933 19.469V15.7396C9.13933 14.4969 8.35329 13.3775 7.17805 12.9335L7.17761 12.9334L6.9538 12.8497L7.01873 12.6243L7.01884 12.624C8.27819 8.20319 11.8896 4.48093 16.745 4.48093C21.5905 4.48093 25.2118 8.20816 26.4686 12.6191L26.4686 12.6192L26.5338 12.8469ZM6.21099 14.1348L6.21834 14.1356H6.22573H6.22767C7.07376 14.2062 7.7296 14.9064 7.7296 15.7396L7.7296 19.4665C7.7296 20.3538 6.9951 21.0779 6.09119 21.0779C5.18466 21.0779 4.45277 20.3562 4.45277 19.469V15.7396C4.45277 14.9011 5.10971 14.2042 5.97346 14.1353C5.9931 14.1341 6.00929 14.1329 6.02382 14.1317C6.04811 14.1298 6.06777 14.1282 6.09119 14.1282C6.13108 14.1282 6.171 14.1304 6.21099 14.1348ZM17.8936 27.7246H15.5739C15.1687 27.7246 14.8449 27.4008 14.8449 27.0087C14.8449 26.6147 15.1707 26.2929 15.5739 26.2929H17.8936C18.2988 26.2929 18.6226 26.6167 18.6226 27.0087C18.6226 27.4005 18.2965 27.7246 17.8936 27.7246ZM29.0147 19.469C29.0147 20.3563 28.2802 21.0804 27.3763 21.0804C26.4702 21.0804 25.7379 20.3541 25.7379 19.469V15.7396C25.7379 14.8523 26.4724 14.1282 27.3763 14.1282C28.2825 14.1282 29.0147 14.8545 29.0147 15.7396V19.469Z" fill="#D64657" stroke="#D64657" stroke-width="0.271103"/>
</svg>
