<svg width="33" height="34" viewBox="0 0 33 34" fill="none" xmlns="http://www.w3.org/2000/svg">
<path fill-rule="evenodd" clip-rule="evenodd" d="M16.5 0.59375C17.0221 0.59375 17.5229 0.801171 17.8921 1.17038C18.2613 1.5396 18.4688 2.04036 18.4688 2.5625V15.0312H30.9375C31.4596 15.0312 31.9604 15.2387 32.3296 15.6079C32.6988 15.9771 32.9062 16.4779 32.9062 17C32.9062 17.5221 32.6988 18.0229 32.3296 18.3921C31.9604 18.7613 31.4596 18.9688 30.9375 18.9688H18.4688V31.4375C18.4688 31.9596 18.2613 32.4604 17.8921 32.8296C17.5229 33.1988 17.0221 33.4062 16.5 33.4062C15.9779 33.4062 15.4771 33.1988 15.1079 32.8296C14.7387 32.4604 14.5312 31.9596 14.5312 31.4375V18.9688H2.0625C1.54036 18.9688 1.0396 18.7613 0.670384 18.3921C0.301171 18.0229 0.09375 17.5221 0.09375 17C0.09375 16.4779 0.301171 15.9771 0.670384 15.6079C1.0396 15.2387 1.54036 15.0312 2.0625 15.0312H14.5312V2.5625C14.5312 2.04036 14.7387 1.5396 15.1079 1.17038C15.4771 0.801171 15.9779 0.59375 16.5 0.59375Z" fill="#0064FA"/>
</svg>
