<svg width="21" height="20" viewBox="0 0 21 20" fill="none" xmlns="http://www.w3.org/2000/svg">
<path d="M2.5 7.89474V14C2.5 16.2091 4.29086 18 6.5 18H14.5C16.7091 18 18.5 16.2091 18.5 14V7.89474M2.5 7.89474V6C2.5 3.79086 4.29086 2 6.5 2H8.10003C9.05242 2 9.92067 2.54548 10.334 3.40351V3.40351C10.5407 3.83252 10.9748 4.10526 11.451 4.10526H14.7105C16.8034 4.10526 18.5 5.80187 18.5 7.89474V7.89474M2.5 7.89474H18.5M10.5 14.5V12.5M10.5 12.5V10.5M10.5 12.5H8.5M10.5 12.5H12.5" stroke="#0064FA" stroke-width="1.25" stroke-linecap="round"/>
</svg>
