<svg width="24" height="25" viewBox="0 0 24 25" fill="none" xmlns="http://www.w3.org/2000/svg">
<path d="M12.33 21.8404C11.24 21.8404 10.15 21.4304 9.31999 20.6004C7.65999 18.9404 7.65999 16.2504 9.31999 14.5904L11.8 12.1204C12.09 11.8304 12.57 11.8304 12.86 12.1204C13.15 12.4104 13.15 12.8904 12.86 13.1804L10.38 15.6504C9.30999 16.7204 9.30999 18.4704 10.38 19.5404C11.45 20.6104 13.2 20.6104 14.27 19.5404L18.16 15.6504C19.34 14.4704 19.99 12.9004 19.99 11.2304C19.99 9.56035 19.34 7.99035 18.16 6.81035C15.72 4.37035 11.76 4.37035 9.31999 6.81035L5.07999 11.0504C4.08999 12.0404 3.53999 13.3604 3.53999 14.7604C3.53999 16.1604 4.08999 17.4804 5.07999 18.4704C5.36999 18.7604 5.36999 19.2404 5.07999 19.5304C4.78999 19.8204 4.30999 19.8204 4.01999 19.5304C2.74999 18.2504 2.03999 16.5604 2.03999 14.7604C2.03999 12.9604 2.73999 11.2604 4.01999 9.99035L8.25999 5.75035C11.28 2.73035 16.2 2.73035 19.22 5.75035C20.68 7.21035 21.49 9.16035 21.49 11.2304C21.49 13.3004 20.68 15.2504 19.22 16.7104L15.33 20.6004C14.5 21.4304 13.42 21.8404 12.33 21.8404Z" fill="#0064FA"/>
</svg>
