<svg width="18" height="18" viewBox="0 0 18 18" fill="none" xmlns="http://www.w3.org/2000/svg">
<path fill-rule="evenodd" clip-rule="evenodd" d="M12.1058 4.68417L4.79925 12.3904L1.7661 9.24039L1.68619 9.17102C1.46051 9.00818 1.14251 9.02292 0.932981 9.22011C0.697256 9.44196 0.688073 9.81072 0.91247 10.0438L4.37574 13.6405L4.45899 13.7123C4.69429 13.8797 5.02664 13.8544 5.23249 13.6373L12.9657 5.48101L13.0312 5.39819C13.1828 5.16617 13.1498 4.85313 12.9387 4.65754C12.7013 4.4375 12.3284 4.44942 12.1058 4.68417ZM16.2289 4.68617L8.56818 12.8424L8.50306 12.9255C8.35256 13.1583 8.38703 13.4711 8.59902 13.6658C8.83751 13.8847 9.21037 13.871 9.43183 13.6353L17.0925 5.47902L17.1577 5.39589C17.3082 5.16317 17.2737 4.85029 17.0617 4.65568C16.8232 4.43674 16.4503 4.45039 16.2289 4.68617Z" fill="#0064FA"/>
</svg>
