<svg width="12" height="12" viewBox="0 0 12 12" fill="none" xmlns="http://www.w3.org/2000/svg">
<g clip-path="url(#clip0_8288_47605)">
<path d="M3.61906 4.33194H6.00001M3.61906 5.99861H7.42858M4.89703 8.85575H8.00001C8.80008 8.85575 9.20012 8.85575 9.50571 8.70004C9.77451 8.56308 9.99306 8.34454 10.13 8.07573C10.2857 7.77015 10.2857 7.37011 10.2857 6.57003V3.99861C10.2857 3.19853 10.2857 2.79849 10.13 2.4929C9.99306 2.2241 9.77451 2.00556 9.50571 1.8686C9.20012 1.71289 8.80008 1.71289 8.00001 1.71289H4.00001C3.19993 1.71289 2.7999 1.71289 2.49431 1.8686C2.22551 2.00556 2.00696 2.2241 1.87 2.4929C1.71429 2.79849 1.71429 3.19853 1.71429 3.99861V9.96789C1.71429 10.2216 1.71429 10.3485 1.76631 10.4137C1.81154 10.4703 1.88014 10.5033 1.95265 10.5032C2.03602 10.5031 2.13509 10.4239 2.33323 10.2654L3.46916 9.35662C3.70121 9.17098 3.81723 9.07816 3.94643 9.01215C4.06106 8.95359 4.18307 8.91079 4.30916 8.88492C4.45128 8.85575 4.59986 8.85575 4.89703 8.85575Z" stroke="white" stroke-opacity="0.5" stroke-linecap="round" stroke-linejoin="round"/>
</g>
<defs>
<clipPath id="clip0_8288_47605">
<rect width="11.4286" height="11.4286" fill="white" transform="translate(0.285706 0.285156)"/>
</clipPath>
</defs>
</svg>
