<svg width="19" height="18" viewBox="0 0 19 18" fill="none" xmlns="http://www.w3.org/2000/svg">
<path d="M6.35478 14.2955V12.972M6.35478 11.6484V12.972M6.35478 12.972H7.67831M6.35478 12.972H5.03125" stroke="#0064FA" stroke-width="1.25" stroke-linecap="round"/>
<path d="M7.96951 8.64367C11.1159 9.71874 11.587 13.9384 11.6438 15.7099C11.658 16.1531 11.2961 16.4998 10.8527 16.4998H6.35662H1.86054C1.41717 16.4998 1.05521 16.1544 1.06937 15.7113C1.12762 13.8894 1.62408 9.4734 5.02283 8.55859" stroke="#0064FA" stroke-width="1.25"/>
<path d="M3.26562 4.36765V2.33333C3.26562 1.8731 3.63872 1.5 4.09896 1.5H8.60876C9.069 1.5 9.44209 1.8731 9.44209 2.33333V4.36765M3.26562 4.36765V5.91177C3.26562 7.61735 4.64828 9 6.35386 9V9C8.05944 9 9.44209 7.61735 9.44209 5.91177V4.36765M3.26562 4.36765H9.44209" stroke="#0064FA" stroke-width="1.25"/>
<path d="M13.6641 16.4999H17.5549C17.9982 16.4999 18.3602 16.1535 18.3398 15.7106C18.2712 14.2153 17.8346 11.0445 15.4064 10.2148" stroke="#0064FA" stroke-width="1.25" stroke-linecap="round"/>
<path d="M11.6445 6.7942V5.33333C11.6445 4.8731 12.0176 4.5 12.4779 4.5H15.7525C16.2128 4.5 16.5859 4.8731 16.5859 5.33333V6.7942M11.6445 6.7942V8.02953C11.6445 9.39405 12.7507 10.5002 14.1152 10.5002V10.5002C15.4797 10.5002 16.5859 9.39405 16.5859 8.02953V6.7942M11.6445 6.7942H16.5859" stroke="#0064FA" stroke-width="1.25"/>
</svg>
