<svg width="21" height="20" viewBox="0 0 21 20" fill="none" xmlns="http://www.w3.org/2000/svg">
<path d="M13.8333 1.66699H7.16666C3.83332 1.66699 2.16666 3.33366 2.16666 6.66699V17.5003C2.16666 17.9587 2.54166 18.3337 2.99999 18.3337H13.8333C17.1667 18.3337 18.8333 16.667 18.8333 13.3337V6.66699C18.8333 3.33366 17.1667 1.66699 13.8333 1.66699Z" stroke="#0064FA" stroke-width="1.25" stroke-linecap="round" stroke-linejoin="round"/>
<path d="M11.258 6.53248L6.93299 10.8575C6.76632 11.0241 6.60799 11.3492 6.57466 11.5825L6.34133 13.2325C6.25799 13.8325 6.67466 14.2492 7.27466 14.1658L8.92464 13.9325C9.15797 13.8992 9.48299 13.7408 9.64966 13.5742L13.9747 9.24915C14.7163 8.50748 15.0747 7.64082 13.9747 6.54082C12.8747 5.43248 12.008 5.78248 11.258 6.53248Z" stroke="#0064FA" stroke-width="1.25" stroke-miterlimit="10" stroke-linecap="round" stroke-linejoin="round"/>
<path d="M10.6414 7.14941C11.0081 8.45775 12.0331 9.49108 13.3498 9.85775" stroke="#0064FA" stroke-width="1.25" stroke-miterlimit="10" stroke-linecap="round" stroke-linejoin="round"/>
</svg>
