<svg width="18" height="18" viewBox="0 0 18 18" fill="none" xmlns="http://www.w3.org/2000/svg">
<mask id="path-1-inside-1_8288_43523" fill="white">
<path d="M9 16.3906C4.92313 16.3906 1.60937 13.0769 1.60937 9C1.60938 4.92313 4.92313 1.60938 9 1.60938C13.0769 1.60938 16.3906 4.92313 16.3906 9C16.3906 13.0769 13.0769 16.3906 9 16.3906ZM9 2.64062C5.49375 2.64062 2.64062 5.49375 2.64062 9C2.64062 12.5063 5.49375 15.3594 9 15.3594C12.5063 15.3594 15.3594 12.5063 15.3594 9C15.3594 5.49375 12.5063 2.64062 9 2.64062Z"/>
</mask>
<path d="M9 15.2606C5.54721 15.2606 2.73937 12.4528 2.73937 9H0.479375C0.479375 13.701 4.29904 17.5206 9 17.5206V15.2606ZM2.73937 9C2.73937 5.54721 5.54721 2.73937 9 2.73937V0.479375C4.29904 0.479375 0.479375 4.29904 0.479375 9H2.73937ZM9 2.73937C12.4528 2.73937 15.2606 5.54721 15.2606 9H17.5206C17.5206 4.29904 13.701 0.479375 9 0.479375V2.73937ZM15.2606 9C15.2606 12.4528 12.4528 15.2606 9 15.2606V17.5206C13.701 17.5206 17.5206 13.701 17.5206 9H15.2606ZM9 1.51063C4.86967 1.51063 1.51063 4.86967 1.51063 9H3.77063C3.77063 6.11783 6.11783 3.77063 9 3.77063V1.51063ZM1.51063 9C1.51063 13.1303 4.86967 16.4894 9 16.4894V14.2294C6.11783 14.2294 3.77063 11.8822 3.77063 9H1.51063ZM9 16.4894C13.1303 16.4894 16.4894 13.1303 16.4894 9H14.2294C14.2294 11.8822 11.8822 14.2294 9 14.2294V16.4894ZM16.4894 9C16.4894 4.86967 13.1303 1.51063 9 1.51063V3.77063C11.8822 3.77063 14.2294 6.11783 14.2294 9H16.4894Z" fill="#D64657" fill-opacity="0.5" mask="url(#path-1-inside-1_8288_43523)"/>
<path d="M7.05462 11.4618C6.92399 11.4618 6.79337 11.4137 6.69024 11.3105C6.49087 11.1112 6.49087 10.7812 6.69024 10.5818L10.5815 6.69055C10.7809 6.49117 11.1109 6.49117 11.3102 6.69055C11.5096 6.88992 11.5096 7.21992 11.3102 7.4193L7.41899 11.3105C7.32274 11.4137 7.18524 11.4618 7.05462 11.4618Z" fill="#D64657" fill-opacity="0.5"/>
<path d="M7.0949 10.9865L7.08931 10.992L7.08489 10.9968C7.08421 10.9972 7.08282 10.998 7.08048 10.9989C7.07406 11.0014 7.0647 11.0035 7.05462 11.0035C7.04566 11.0035 7.03869 11.0019 7.03336 10.9997C7.02845 10.9977 7.02206 10.9942 7.01433 10.9865L6.69024 11.3105L7.01433 10.9865C7.00568 10.9778 6.99904 10.9643 6.99904 10.9462C6.99904 10.928 7.00568 10.9145 7.01433 10.9059L6.69024 10.5818L7.01433 10.9059L10.9056 7.01464L10.5815 6.69055L10.9056 7.01464C10.9142 7.00598 10.9277 6.99935 10.9459 6.99935C10.964 6.99935 10.9775 7.00598 10.9861 7.01464L11.3102 6.69055L10.9862 7.01464C10.9948 7.02329 11.0014 7.03676 11.0014 7.05492C11.0014 7.07308 10.9948 7.08655 10.9862 7.09521L7.0949 10.9865Z" stroke="#D64657" stroke-opacity="0.5" stroke-width="0.916667"/>
<path d="M10.9459 11.4618C10.8152 11.4618 10.6846 11.4137 10.5815 11.3105L6.69024 7.4193C6.49087 7.21992 6.49087 6.88992 6.69024 6.69055C6.88962 6.49117 7.21962 6.49117 7.41899 6.69055L11.3102 10.5818C11.5096 10.7812 11.5096 11.1112 11.3102 11.3105C11.2071 11.4137 11.0765 11.4618 10.9459 11.4618Z" fill="#D64657" fill-opacity="0.5"/>
<path d="M10.9459 11.0035C10.9369 11.0035 10.9299 11.0019 10.9246 10.9997C10.9197 10.9977 10.9133 10.9942 10.9056 10.9865L7.01433 7.09521C7.00568 7.08655 6.99904 7.07308 6.99904 7.05492C6.99904 7.03676 7.00568 7.02329 7.01433 7.01464C7.02299 7.00598 7.03646 6.99935 7.05462 6.99935C7.07278 6.99935 7.08624 7.00598 7.0949 7.01464L10.9862 10.9059C10.9948 10.9145 11.0014 10.928 11.0014 10.9462C11.0014 10.9643 10.9948 10.9778 10.9862 10.9865L11.3102 11.3105L10.9861 10.9865C10.9784 10.9942 10.972 10.9977 10.9671 10.9997C10.9618 11.0019 10.9548 11.0035 10.9459 11.0035Z" stroke="#D64657" stroke-opacity="0.5" stroke-width="0.916667"/>
</svg>
