<svg width="12" height="12" viewBox="0 0 12 12" fill="none" xmlns="http://www.w3.org/2000/svg">
<g clip-path="url(#clip0_8288_47586)">
<path d="M1.43815 6.33896C1.3733 6.23627 1.34088 6.18493 1.32273 6.10574C1.30909 6.04625 1.30909 5.95244 1.32273 5.89296C1.34088 5.81377 1.3733 5.76243 1.43815 5.65974C1.97406 4.81118 3.56924 2.66602 6.00019 2.66602C8.43115 2.66602 10.0263 4.81118 10.5622 5.65974C10.6271 5.76243 10.6595 5.81377 10.6777 5.89296C10.6913 5.95244 10.6913 6.04625 10.6777 6.10574C10.6595 6.18493 10.6271 6.23627 10.5622 6.33896C10.0263 7.18752 8.43115 9.33268 6.00019 9.33268C3.56924 9.33268 1.97406 7.18752 1.43815 6.33896Z" stroke="white" stroke-opacity="0.5" stroke-linecap="round" stroke-linejoin="round"/>
<path d="M6.00019 7.42792C6.78917 7.42792 7.42876 6.78833 7.42876 5.99935C7.42876 5.21037 6.78917 4.57078 6.00019 4.57078C5.21121 4.57078 4.57162 5.21037 4.57162 5.99935C4.57162 6.78833 5.21121 7.42792 6.00019 7.42792Z" stroke="white" stroke-opacity="0.5" stroke-linecap="round" stroke-linejoin="round"/>
</g>
<defs>
<clipPath id="clip0_8288_47586">
<rect width="11.4286" height="11.4286" fill="white" transform="translate(0.285706 0.285156)"/>
</clipPath>
</defs>
</svg>
