<svg width="18" height="18" viewBox="0 0 18 18" fill="none" xmlns="http://www.w3.org/2000/svg">
<path d="M15.7105 5.81224H11.6842C11.4091 5.81224 11.1809 5.58408 11.1809 5.30895C11.1809 5.03382 11.4091 4.80566 11.6842 4.80566H15.7105C15.9856 4.80566 16.2138 5.03382 16.2138 5.30895C16.2138 5.58408 15.9856 5.81224 15.7105 5.81224Z" fill="white"/>
<path d="M4.97369 5.81224H2.28948C2.01435 5.81224 1.78619 5.58408 1.78619 5.30895C1.78619 5.03382 2.01435 4.80566 2.28948 4.80566H4.97369C5.24882 4.80566 5.47698 5.03382 5.47698 5.30895C5.47698 5.58408 5.24882 5.81224 4.97369 5.81224Z" fill="white"/>
<path d="M7.65788 8.16098C6.08762 8.16098 4.80591 6.87927 4.80591 5.309C4.80591 3.73874 6.08762 2.45703 7.65788 2.45703C9.22814 2.45703 10.5099 3.73874 10.5099 5.309C10.5099 6.87927 9.22814 8.16098 7.65788 8.16098ZM7.65788 3.46361C6.63788 3.46361 5.81249 4.289 5.81249 5.309C5.81249 6.329 6.63788 7.1544 7.65788 7.1544C8.67788 7.1544 9.50328 6.329 9.50328 5.309C9.50328 4.289 8.67788 3.46361 7.65788 3.46361Z" fill="white"/>
<path d="M15.7105 13.1941H13.0263C12.7512 13.1941 12.523 12.9659 12.523 12.6908C12.523 12.4157 12.7512 12.1875 13.0263 12.1875H15.7105C15.9856 12.1875 16.2138 12.4157 16.2138 12.6908C16.2138 12.9659 15.9856 13.1941 15.7105 13.1941Z" fill="white"/>
<path d="M6.3158 13.1941H2.28948C2.01435 13.1941 1.78619 12.9659 1.78619 12.6908C1.78619 12.4157 2.01435 12.1875 2.28948 12.1875H6.3158C6.59093 12.1875 6.81909 12.4157 6.81909 12.6908C6.81909 12.9659 6.59093 13.1941 6.3158 13.1941Z" fill="white"/>
<path d="M10.3421 15.5428C8.77182 15.5428 7.49011 14.2611 7.49011 12.6908C7.49011 11.1206 8.77182 9.83887 10.3421 9.83887C11.9123 9.83887 13.1941 11.1206 13.1941 12.6908C13.1941 14.2611 11.9123 15.5428 10.3421 15.5428ZM10.3421 10.8454C9.32209 10.8454 8.49669 11.6708 8.49669 12.6908C8.49669 13.7108 9.32209 14.5362 10.3421 14.5362C11.3621 14.5362 12.1875 13.7108 12.1875 12.6908C12.1875 11.6708 11.3621 10.8454 10.3421 10.8454Z" fill="white"/>
</svg>
