<svg width="21" height="20" viewBox="0 0 21 20" fill="none" xmlns="http://www.w3.org/2000/svg">
<path d="M7.16666 10.167H13" stroke="#0064FA" stroke-width="1.25" stroke-miterlimit="10" stroke-linecap="round" stroke-linejoin="round"/>
<path d="M7.16666 13.5H10.8167" stroke="#0064FA" stroke-width="1.25" stroke-miterlimit="10" stroke-linecap="round" stroke-linejoin="round"/>
<path d="M8.83332 5.00033H12.1667C13.8333 5.00033 13.8333 4.16699 13.8333 3.33366C13.8333 1.66699 13 1.66699 12.1667 1.66699L8.83332 1.66699C7.99999 1.66699 7.16666 1.66699 7.16666 3.33366C7.16666 5.00033 7.99999 5.00033 8.83332 5.00033Z" stroke="#0064FA" stroke-width="1.25" stroke-miterlimit="10" stroke-linecap="round" stroke-linejoin="round"/>
<path d="M13.8333 3.34961C16.6083 3.49961 18 4.52461 18 8.33294V13.3329C18 16.6663 17.1667 18.3329 13 18.3329H8C3.83333 18.3329 3 16.6663 3 13.3329L3 8.33294C3 4.53294 4.39167 3.49961 7.16667 3.34961" stroke="#0064FA" stroke-width="1.25" stroke-miterlimit="10" stroke-linecap="round" stroke-linejoin="round"/>
</svg>
