<svg width="20" height="20" viewBox="0 0 20 20" fill="none" xmlns="http://www.w3.org/2000/svg">
<rect x="12" y="1" width="2" height="6" rx="0.5" fill="white"/>
<rect x="10" y="5" width="2" height="6" rx="0.5" transform="rotate(-90 10 5)" fill="white"/>
<path d="M9.64347 9.90948C9.92265 9.86269 10.8841 10.0657 11.3299 10.173C12.1969 10.3557 13.3031 11.1048 13.3031 11.7962C13.3031 12.4876 12.7768 12.7423 11.4882 12.7423C10.4573 12.7423 8.8445 12.5118 8.16694 12.3966C9.45551 13.1426 11.4337 13.8158 12.3049 13.8158C13.176 13.8158 14.9365 12.5786 17.1143 11.7962C18.8566 11.1703 19.7641 12.3117 20 12.9607C18.1851 14.3071 13.8185 17 10.8711 17C7.92375 17 5.04536 15.4959 3.97458 14.7438L5.85162 8.68699C7.85525 8.49776 9.1755 9.36746 9.64347 9.90948Z" fill="white"/>
<path d="M4.50087 8.17532L2.32301 15.2715H0V7.12035C0.139134 7.07197 1.24602 6.94094 2.09497 7.03065C2.94393 7.12035 4.11975 7.77528 4.50087 8.17532Z" fill="white"/>
</svg>
