<svg width="32" height="32" viewBox="0 0 32 32" fill="none" xmlns="http://www.w3.org/2000/svg">
<path d="M3.00087 15.7815V15.7815C2.00913 15.7815 1.20516 16.5854 1.20516 17.5772V21.64C1.20516 23.1152 2.40103 24.3111 3.87621 24.3111H4.34765M3.00087 15.7815L6.70551 9.85404C7.19361 9.07307 8.0496 8.59864 8.97056 8.59864H11.9794M3.00087 15.7815H11.9794M11.9794 8.59864V6.78043C11.9794 5.30525 13.1753 4.10938 14.6504 4.10938H28.1633C29.6384 4.10938 30.8343 5.30525 30.8343 6.78043V21.64C30.8343 23.1152 29.6384 24.3111 28.1633 24.3111H27.2429M11.9794 8.59864V15.7815M11.9794 24.3111V15.7815M11.9794 24.3111H10.6326M11.9794 24.3111H21.4069" stroke="#0064FA" stroke-width="1.5"/>
<circle cx="24.5473" cy="24.3102" r="2.84141" stroke="#0064FA" stroke-width="1.5"/>
<path d="M10.3268 24.3102C10.3268 25.8794 9.05465 27.1516 7.48538 27.1516C5.91611 27.1516 4.64397 25.8794 4.64397 24.3102C4.64397 22.7409 5.91611 21.4688 7.48538 21.4688C9.05465 21.4688 10.3268 22.7409 10.3268 24.3102Z" stroke="#0064FA" stroke-width="1.5"/>
<path d="M21.4021 16.2299V13.5363M21.4021 10.8428V13.5363M21.4021 13.5363H18.7086M21.4021 13.5363H24.0957" stroke="#0064FA" stroke-width="1.5" stroke-linecap="round" stroke-linejoin="round"/>
</svg>
