<svg width="24" height="25" viewBox="0 0 24 25" fill="none" xmlns="http://www.w3.org/2000/svg">
<path d="M12 16.75C9.38 16.75 7.25 14.62 7.25 12V6.5C7.25 3.88 9.38 1.75 12 1.75C14.62 1.75 16.75 3.88 16.75 6.5V12C16.75 14.62 14.62 16.75 12 16.75ZM12 3.25C10.21 3.25 8.75 4.71 8.75 6.5V12C8.75 13.79 10.21 15.25 12 15.25C13.79 15.25 15.25 13.79 15.25 12V6.5C15.25 4.71 13.79 3.25 12 3.25Z" fill="#0064FA"/>
<path d="M12 20.2504C7.37 20.2504 3.6 16.4804 3.6 11.8504V10.1504C3.6 9.74039 3.94 9.40039 4.35 9.40039C4.76 9.40039 5.1 9.74039 5.1 10.1504V11.8504C5.1 15.6504 8.2 18.7504 12 18.7504C15.8 18.7504 18.9 15.6504 18.9 11.8504V10.1504C18.9 9.74039 19.24 9.40039 19.65 9.40039C20.06 9.40039 20.4 9.74039 20.4 10.1504V11.8504C20.4 16.4804 16.63 20.2504 12 20.2504Z" fill="#0064FA"/>
<path d="M13.39 7.68031C13.31 7.68031 13.22 7.67031 13.13 7.64031C12.4 7.37031 11.6 7.37031 10.87 7.64031C10.48 7.78031 10.05 7.58031 9.91 7.19031C9.77 6.80031 9.97 6.37031 10.36 6.23031C11.42 5.85031 12.59 5.85031 13.65 6.23031C14.04 6.37031 14.24 6.80031 14.1 7.19031C13.98 7.49031 13.69 7.68031 13.39 7.68031Z" fill="#0064FA"/>
<path d="M12.8 9.80031C12.73 9.80031 12.67 9.79031 12.6 9.77031C12.2 9.66031 11.79 9.66031 11.39 9.77031C10.99 9.88031 10.58 9.64031 10.47 9.24031C10.36 8.85031 10.6 8.44031 11 8.33031C11.65 8.15031 12.35 8.15031 13 8.33031C13.4 8.44031 13.64 8.85031 13.53 9.25031C13.44 9.58031 13.13 9.80031 12.8 9.80031Z" fill="#0064FA"/>
<path d="M12 23.25C11.59 23.25 11.25 22.91 11.25 22.5V19.5C11.25 19.09 11.59 18.75 12 18.75C12.41 18.75 12.75 19.09 12.75 19.5V22.5C12.75 22.91 12.41 23.25 12 23.25Z" fill="#0064FA"/>
</svg>
