<svg width="12" height="12" viewBox="0 0 12 12" fill="none" xmlns="http://www.w3.org/2000/svg">
<mask id="path-1-inside-1_8288_47570" fill="white">
<path d="M7.05716 10.5843C6.49526 10.5843 5.70002 10.189 5.07145 8.29857L4.72859 7.27L3.70002 6.92714C1.81431 6.29857 1.41907 5.50333 1.41907 4.94143C1.41907 4.38428 1.81431 3.58428 3.70002 2.95095L7.74288 1.60333C8.7524 1.26524 9.59526 1.36524 10.1143 1.87952C10.6334 2.39381 10.7334 3.24143 10.3953 4.25095L9.04764 8.29381C8.41431 10.189 7.61907 10.5843 7.05716 10.5843ZM3.92383 3.6319C2.60002 4.07476 2.12859 4.59857 2.12859 4.94143C2.12859 5.28428 2.60002 5.80809 3.92383 6.24619L5.12383 6.64619C5.22859 6.67952 5.31431 6.76524 5.34764 6.87L5.74764 8.07C6.18573 9.39381 6.71431 9.86524 7.05716 9.86524C7.40002 9.86524 7.92383 9.39381 8.36669 8.07L9.7143 4.02714C9.95716 3.29381 9.91431 2.69381 9.60478 2.38428C9.29526 2.07476 8.69526 2.03666 7.96669 2.27952L3.92383 3.6319Z"/>
</mask>
<path d="M7.05716 10.5843C6.49526 10.5843 5.70002 10.189 5.07145 8.29857L4.72859 7.27L3.70002 6.92714C1.81431 6.29857 1.41907 5.50333 1.41907 4.94143C1.41907 4.38428 1.81431 3.58428 3.70002 2.95095L7.74288 1.60333C8.7524 1.26524 9.59526 1.36524 10.1143 1.87952C10.6334 2.39381 10.7334 3.24143 10.3953 4.25095L9.04764 8.29381C8.41431 10.189 7.61907 10.5843 7.05716 10.5843ZM3.92383 3.6319C2.60002 4.07476 2.12859 4.59857 2.12859 4.94143C2.12859 5.28428 2.60002 5.80809 3.92383 6.24619L5.12383 6.64619C5.22859 6.67952 5.31431 6.76524 5.34764 6.87L5.74764 8.07C6.18573 9.39381 6.71431 9.86524 7.05716 9.86524C7.40002 9.86524 7.92383 9.39381 8.36669 8.07L9.7143 4.02714C9.95716 3.29381 9.91431 2.69381 9.60478 2.38428C9.29526 2.07476 8.69526 2.03666 7.96669 2.27952L3.92383 3.6319Z" fill="white"/>
<path d="M5.07145 8.29857L6.02037 7.98306L6.02013 7.98234L5.07145 8.29857ZM4.72859 7.27L5.67727 6.95377L5.51916 6.47943L5.04482 6.32131L4.72859 7.27ZM3.70002 6.92714L4.01625 5.97846L3.70002 6.92714ZM3.70002 2.95095L3.38379 2.00226L3.38164 2.00299L3.70002 2.95095ZM7.74288 1.60333L8.05911 2.55202L8.06045 2.55157L7.74288 1.60333ZM10.3953 4.25095L9.44702 3.93338L9.44657 3.93472L10.3953 4.25095ZM9.04764 8.29381L9.99608 8.61075L9.99632 8.61003L9.04764 8.29381ZM3.92383 3.6319L3.6066 2.68355L3.60658 2.68356L3.92383 3.6319ZM3.92383 6.24619L4.24006 5.2975L4.23801 5.29682L3.92383 6.24619ZM5.12383 6.64619L4.80757 7.59496L4.82063 7.59911L5.12383 6.64619ZM5.34764 6.87L4.39462 7.17323L4.39896 7.18623L5.34764 6.87ZM5.74764 8.07L6.69701 7.75582L6.69632 7.75377L5.74764 8.07ZM8.36669 8.07L9.31503 8.38725L9.31537 8.38623L8.36669 8.07ZM9.7143 4.02714L10.663 4.34337L10.6636 4.34152L9.7143 4.02714ZM7.96669 2.27952L7.65046 1.33084L7.64945 1.33117L7.96669 2.27952ZM7.05716 9.58428C7.04004 9.58428 6.94819 9.58934 6.78335 9.43042C6.59382 9.24771 6.30573 8.8413 6.02037 7.98306L4.12253 8.61408C4.46574 9.64631 4.88955 10.3828 5.39526 10.8703C5.92566 11.3816 6.51238 11.5843 7.05716 11.5843V9.58428ZM6.02013 7.98234L5.67727 6.95377L3.77991 7.58623L4.12277 8.6148L6.02013 7.98234ZM5.04482 6.32131L4.01625 5.97846L3.38379 7.87582L4.41236 8.21868L5.04482 6.32131ZM4.01625 5.97846C3.1606 5.69324 2.75527 5.40534 2.57295 5.21588C2.4142 5.05092 2.41907 4.95878 2.41907 4.94143H0.419067C0.419067 5.48598 0.621552 6.07241 1.13185 6.60269C1.61858 7.10847 2.35372 7.53247 3.38379 7.87582L4.01625 5.97846ZM2.41907 4.94143C2.41907 4.92753 2.41349 4.83444 2.57413 4.66693C2.75734 4.4759 3.16345 4.18605 4.0184 3.89891L3.38164 2.00299C2.35087 2.34918 1.61651 2.776 1.13067 3.28259C0.622266 3.8127 0.419067 4.39818 0.419067 4.94143H2.41907ZM4.01625 3.89963L8.0591 2.55201L7.42665 0.654648L3.38379 2.00227L4.01625 3.89963ZM8.06045 2.55157C8.89349 2.27258 9.27294 2.45362 9.41046 2.58988L10.8181 1.16916C9.91757 0.276851 8.61131 0.257896 7.42531 0.655096L8.06045 2.55157ZM9.41046 2.58988C9.54218 2.72039 9.72703 3.09731 9.44702 3.93338L11.3435 4.56852C11.7397 3.38554 11.7245 2.06722 10.8181 1.16916L9.41046 2.58988ZM9.44657 3.93472L8.09896 7.97758L9.99632 8.61003L11.3439 4.56718L9.44657 3.93472ZM8.0992 7.97686C7.81141 8.83806 7.52206 9.24618 7.33155 9.42985C7.16589 9.58956 7.07397 9.58428 7.05716 9.58428V11.5843C7.60226 11.5843 8.18891 11.3814 8.71968 10.8697C9.2256 10.3819 9.65054 9.64479 9.99608 8.61075L8.0992 7.97686ZM3.60658 2.68356C2.8768 2.9277 2.30815 3.21727 1.90091 3.54665C1.52545 3.85034 1.12859 4.32304 1.12859 4.94143H3.12859C3.12859 5.21695 2.96745 5.25632 3.15865 5.10168C3.31808 4.97273 3.64705 4.77897 4.24108 4.58024L3.60658 2.68356ZM1.12859 4.94143C1.12859 5.55997 1.52557 6.03281 1.9019 6.3364C2.30986 6.66551 2.87925 6.95384 3.60965 7.19555L4.23801 5.29682C3.6446 5.10044 3.31637 4.90782 3.15766 4.77978C2.96733 4.62624 3.12859 4.66574 3.12859 4.94143H1.12859ZM3.6076 7.19487L4.8076 7.59487L5.44006 5.6975L4.24006 5.29751L3.6076 7.19487ZM4.82063 7.59911C4.61625 7.53408 4.45974 7.37758 4.39471 7.1732L6.30056 6.56679C6.16887 6.15289 5.84094 5.82496 5.42703 5.69326L4.82063 7.59911ZM4.39896 7.18623L4.79896 8.38623L6.69632 7.75377L6.29632 6.55377L4.39896 7.18623ZM4.79827 8.38418C5.0404 9.11582 5.33042 9.68574 5.6614 10.0939C5.96663 10.4703 6.44038 10.8652 7.05716 10.8652V8.86524C7.33108 8.86524 7.36912 9.02446 7.21483 8.83419C7.08629 8.67568 6.89297 8.34799 6.697 7.75582L4.79827 8.38418ZM7.05716 10.8652C7.67554 10.8652 8.14825 10.4684 8.45194 10.0929C8.78132 9.68567 9.07089 9.11703 9.31503 8.38725L7.41834 7.75275C7.21962 8.34678 7.02586 8.67575 6.89691 8.83518C6.74227 9.02638 6.78164 8.86524 7.05716 8.86524V10.8652ZM9.31537 8.38623L10.663 4.34337L8.76562 3.71091L7.418 7.75377L9.31537 8.38623ZM10.6636 4.34152C10.8135 3.88883 10.8945 3.42261 10.8644 2.979C10.8343 2.5362 10.6862 2.05152 10.3119 1.67718L8.89767 3.09139C8.83286 3.02657 8.86097 2.99665 8.86899 3.11457C8.87694 3.23167 8.85795 3.43211 8.76501 3.71276L10.6636 4.34152ZM10.3119 1.67718C9.93544 1.30073 9.44825 1.15498 9.00658 1.12679C8.56396 1.09854 8.09964 1.18111 7.65046 1.33084L8.28291 3.2282C8.56231 3.13507 8.76227 3.11527 8.87918 3.12273C8.99703 3.13025 8.9646 3.15831 8.89767 3.09139L10.3119 1.67718ZM7.64945 1.33117L3.6066 2.68355L4.24106 4.58025L8.28392 3.22787L7.64945 1.33117Z" fill="white" mask="url(#path-1-inside-1_8288_47570)"/>
<path d="M5.09997 7.14137C5.00949 7.14137 4.91902 7.10804 4.84759 7.03661C4.70949 6.89851 4.70949 6.66994 4.84759 6.53185L6.55235 4.82232C6.69045 4.68423 6.91902 4.68423 7.05711 4.82232C7.19521 4.96042 7.19521 5.18899 7.05711 5.32708L5.35235 7.03661C5.28569 7.10804 5.19045 7.14137 5.09997 7.14137Z" fill="white"/>
</svg>
