<svg width="24" height="25" viewBox="0 0 24 25" fill="none" xmlns="http://www.w3.org/2000/svg">
<path d="M15 22.75H9C6.3424 22.75 4.56492 22.1803 3.4423 21.0577C2.31968 19.9351 1.75 18.1576 1.75 15.5V9.5C1.75 6.8424 2.31968 5.06492 3.4423 3.9423C4.56492 2.81968 6.3424 2.25 9 2.25H15C17.6576 2.25 19.4351 2.81968 20.5577 3.9423C21.6803 5.06492 22.25 6.8424 22.25 9.5V15.5C22.25 18.1576 21.6803 19.9351 20.5577 21.0577C19.4351 22.1803 17.6576 22.75 15 22.75ZM9 2.75C6.65972 2.75 4.92432 3.16107 3.7927 4.2927C2.66107 5.42432 2.25 7.15972 2.25 9.5V15.5C2.25 17.8403 2.66107 19.5757 3.7927 20.7073C4.92432 21.8389 6.65972 22.25 9 22.25H15C17.3403 22.25 19.0757 21.8389 20.2073 20.7073C21.3389 19.5757 21.75 17.8403 21.75 15.5V9.5C21.75 7.15972 21.3389 5.42432 20.2073 4.2927C19.0757 3.16107 17.3403 2.75 15 2.75H9Z" fill="#0064FA" stroke="#7D7F82"/>
<path d="M8.82 10.2504C7.97 10.2504 7.12 9.93043 6.47 9.28043C6.18 8.99043 6.18 8.51043 6.47 8.22043C6.76 7.93043 7.24 7.93043 7.53 8.22043C8.24 8.93043 9.4 8.93043 10.11 8.22043C10.4 7.93043 10.88 7.93043 11.17 8.22043C11.46 8.51043 11.46 8.99043 11.17 9.28043C10.52 9.92043 9.67 10.2504 8.82 10.2504Z" fill="#7D7F82"/>
<path d="M15.18 10.2504C14.33 10.2504 13.48 9.93043 12.83 9.28043C12.54 8.99043 12.54 8.51043 12.83 8.22043C13.12 7.93043 13.6 7.93043 13.89 8.22043C14.6 8.93043 15.76 8.93043 16.47 8.22043C16.76 7.93043 17.24 7.93043 17.53 8.22043C17.82 8.51043 17.82 8.99043 17.53 9.28043C16.88 9.92043 16.03 10.2504 15.18 10.2504Z" fill="#7D7F82"/>
<path d="M12 19.65C9.1 19.65 6.75 17.29 6.75 14.4C6.75 13.49 7.49 12.75 8.4 12.75H15.6C16.51 12.75 17.25 13.49 17.25 14.4C17.25 17.29 14.9 19.65 12 19.65ZM8.4 14.25C8.32 14.25 8.25 14.32 8.25 14.4C8.25 16.47 9.93 18.15 12 18.15C14.07 18.15 15.75 16.47 15.75 14.4C15.75 14.32 15.68 14.25 15.6 14.25H8.4Z" fill="#7D7F82"/>
</svg>
